<svg width="76" height="75" viewBox="0 0 76 75" fill="none" xmlns="http://www.w3.org/2000/svg">
<g opacity="0.3">
<path fill-rule="evenodd" clip-rule="evenodd" d="M4.94036 52.2089H5.578C5.77467 52.3594 5.57872 52.6001 5.72776 52.7751C5.85262 52.7819 5.97892 52.7888 6.16657 52.7989C6.31163 52.5001 6.41484 52.0663 6.93195 52.2092C7.13043 52.2562 6.97273 52.5131 7.11563 52.5777C7.41731 52.6769 7.62408 52.5098 7.90555 52.3561C8.27147 52.8696 8.93834 52.9927 9.38436 53.4524C9.47097 53.8057 9.31616 54.2005 9.59005 54.5462C9.67594 54.6544 9.64671 54.9908 9.54314 55.0886C9.22558 55.3888 9.61026 55.6959 9.50778 55.9012C9.35657 56.2047 9.4771 56.445 9.41792 56.6796C9.69145 56.7933 9.78816 56.6468 9.96751 56.4591C10.0011 57.183 10.1187 57.8351 9.74197 58.4695C9.59979 58.485 9.44462 58.5019 9.21945 58.5272C9.30605 58.8437 9.00762 59.075 9.01989 59.3893C9.03938 59.9071 8.87807 60.373 8.61501 60.7963C8.39452 61.1499 8.43061 61.5227 8.42447 61.911C8.11991 62.1907 7.80812 62.4761 7.4902 62.7677C7.50392 62.7792 7.45809 62.741 7.35741 62.6572C7.221 62.7713 7.08496 62.9661 6.91138 63.0094C6.67249 63.0686 6.51011 63.3205 6.20698 63.2343C5.99444 63.1736 5.75085 63.218 5.52135 63.2238C5.32937 63.2289 5.12368 63.2061 4.94902 63.2675C4.7224 63.3465 4.5297 63.5702 4.30489 63.6002C3.88629 63.6558 3.4547 63.6161 2.99388 63.6161C2.76257 63.1765 2.25664 63.0722 1.85175 62.8918C1.35665 62.671 1.12173 62.2888 0.966563 61.8749C0.808506 61.4527 1.0824 61.0161 1.28087 60.6469C1.53564 60.1742 1.86655 59.7321 2.3234 59.4214C1.99141 58.8877 1.68684 58.3756 2.12637 57.7799C2.25303 56.0488 3.33309 54.7338 4.10569 53.2882C4.31066 52.905 4.81298 52.726 4.94036 52.2089" fill="black"/>
<path fill-rule="evenodd" clip-rule="evenodd" d="M69.8318 18.6171C69.7697 18.6922 69.7145 18.759 69.6579 18.8272C69.7059 18.9805 69.8617 18.9094 69.9711 18.9665C70.1526 19.1011 69.9173 19.3519 70.1241 19.5142C70.1908 19.5074 70.3146 19.5316 70.3612 19.4825C70.9627 18.851 71.0721 19.1137 71.6058 19.5904C71.6689 19.647 71.701 19.6478 71.7902 19.6557C73.0186 19.7629 73.4956 20.2425 73.6335 21.4539C73.7933 21.4734 73.8431 21.2168 74.069 21.316C74.1899 21.713 74.694 21.9645 74.5822 22.5307C74.5591 22.6487 74.8081 22.8205 74.9315 22.9673C74.4587 23.361 75.3703 23.9077 74.803 24.2902C74.8149 24.5425 75.1011 24.5883 75.1548 24.807C75.2176 25.06 75.0199 25.2126 74.9549 25.4154C74.7294 26.1234 74.2448 26.6936 73.894 27.3327C73.5985 27.8714 72.9384 28.0998 72.4318 28.3925C72.159 28.3387 72.072 28.0995 71.8844 27.9891C71.8274 28.1341 71.783 28.2471 71.7083 28.4358C71.5802 28.2485 71.4741 28.0941 71.3759 27.9515C71.1089 28.1255 71.2933 28.3622 71.1547 28.5498H69.8127C69.7437 28.4806 69.6073 28.3441 69.4453 28.1821C68.9766 28.6364 68.5764 28.2759 68.1545 28.0096C67.5966 28.5744 67.029 27.7155 66.4549 28.0367C66.208 27.765 65.8363 27.6257 65.8955 27.1789C65.902 27.1298 65.8475 27.0281 65.814 27.0245C65.1471 26.9566 65.2081 26.302 64.9497 25.9271C65.1132 25.519 65.4185 25.2003 65.7436 24.8972C65.8158 24.8304 65.8829 24.6987 65.9529 24.6984C66.8276 24.6944 66.8634 23.8695 67.2495 23.391C67.584 22.9763 67.7088 22.4578 67.8489 21.9699C67.9853 21.4961 68.0769 21.001 68.0942 20.4842C68.1127 19.9289 68.0813 19.2407 68.8575 19.0148C68.9957 18.9744 69.0989 18.799 69.2071 18.6763C69.3923 18.4667 69.5958 18.502 69.8318 18.6171" fill="black"/>
<path fill-rule="evenodd" clip-rule="evenodd" d="M50.0834 32.2815C49.7568 32.423 49.4179 32.5446 49.0214 32.5266C48.269 32.493 47.5119 32.4847 46.7606 32.5302C46.386 32.5529 46.0002 32.497 45.6801 32.4129C45.4257 32.3469 45.2561 32.7222 45.0515 32.4385C44.8844 32.2076 44.6174 32.3876 44.4164 32.3133C44.1891 32.2292 43.9989 32.0181 43.699 32.169C43.5655 32.2256 43.7863 32.5327 43.4811 32.5078C42.8867 32.467 43.2346 31.6955 42.7384 31.5501C42.703 31.6515 42.6626 31.7652 42.6197 31.886C42.4642 31.9167 42.3638 31.755 42.357 31.6937C42.2989 31.1986 42.0261 30.7446 42.0816 30.2293C42.1022 30.0431 42.13 29.8815 42.2188 29.6945C42.4811 29.1406 42.72 28.5427 42.6558 27.9191C42.6164 27.5359 42.9329 27.2952 42.8896 26.9148C42.8528 26.59 42.7135 26.1935 43.0675 25.9167C43.0675 25.327 43.1022 24.7341 43.0589 24.1474C43.0011 23.3705 43.4569 22.9085 43.9899 22.4867C44.0689 22.4246 44.2399 22.4784 44.3583 22.4784C44.5059 22.8035 44.6813 23.0944 44.6672 23.5974C44.8476 23.2445 44.9389 23.0312 45.1262 22.8667C45.3824 22.6415 45.6054 22.5733 45.875 22.8227C45.988 22.9273 46.063 23.0875 46.264 23.0709C46.8295 23.0229 47.2311 23.3336 47.5588 23.7328C47.872 24.1138 48.3574 24.3282 48.4332 24.9517C48.488 25.4017 48.8857 25.8019 49.0892 26.2433C49.6355 27.4262 50.188 28.6073 50.6799 29.8129C50.917 30.3935 50.6716 30.9796 50.446 31.5317C50.3428 31.7836 50.2097 32.0232 50.0834 32.2815" fill="black"/>
<path fill-rule="evenodd" clip-rule="evenodd" d="M55.2418 44.9213C55.271 45.279 55.1891 45.6615 55.3418 45.8282C55.5929 46.1014 55.0469 46.2702 55.3681 46.4813C55.8708 46.0931 55.8477 45.3656 56.3161 44.9553C56.6466 45.0989 56.9711 45.2537 57.1309 45.4901C57.3994 45.5363 57.4351 45.3627 57.6058 45.2883C58.1107 45.5709 58.7259 45.7964 59.094 46.3042C59.5595 46.9469 59.999 47.6329 59.9954 48.4845C59.9936 48.8782 59.9622 49.2748 60.0008 49.6649C60.1289 50.9521 59.7338 52.1422 59.3477 53.333C59.1864 53.8303 58.9183 54.2806 58.6032 54.6862C58.3791 54.8237 58.1475 54.7321 57.8667 54.766L57.4597 54.3586C57.184 54.325 57.1378 54.7122 56.8769 54.7595C56.717 54.7876 56.6557 54.6509 56.5561 54.569C56.4882 54.6307 56.4193 54.6931 56.3331 54.7714C56.2912 54.6494 56.2519 54.535 56.2122 54.4206C56.1663 54.3561 56.1317 54.3752 56.0714 54.447C55.6301 54.9728 55.0318 54.9987 54.401 54.9471C53.9986 54.6891 53.7634 54.2402 53.1871 54.1009C52.5931 53.9577 52.3495 52.9887 52.623 52.3944C52.8471 51.9069 53.1192 51.4591 52.7291 50.9095C52.6209 50.7568 52.6386 50.4281 52.7263 50.2394C52.9673 49.7215 52.9175 49.1488 53.1008 48.6234C53.2712 48.1348 53.3715 47.6202 53.5624 47.141C53.6205 46.9956 53.6908 46.8689 53.6995 46.7051C53.7316 46.0952 54.0889 45.6189 54.3837 45.1213C54.5724 44.8033 54.8997 44.9347 55.2418 44.9213" fill="black"/>
<path fill-rule="evenodd" clip-rule="evenodd" d="M31.143 29.9361C31.0849 29.8863 31.0174 29.8289 30.9337 29.7574C30.885 29.8913 30.8435 30.0046 30.794 30.1396C30.1817 29.878 29.6833 30.32 29.1247 30.4243C28.9038 30.4654 28.0674 30.6055 27.8509 30.5849C27.7899 30.5788 27.6975 30.5293 27.6748 30.5531C27.412 30.8216 27.0707 30.6903 26.7715 30.7588C26.5146 30.8176 26.288 30.4128 26.0451 30.7411C25.5572 30.3381 24.9856 30.626 24.4566 30.556C24.1351 30.5138 23.8038 30.5481 23.4826 30.5481C23.3845 30.4499 23.2917 30.3572 23.1986 30.2644C23.2715 30.1345 23.4603 30.0573 23.3773 29.8422C23.1005 29.6495 22.7559 29.8451 22.4589 29.721C22.1846 29.4792 22.0428 29.2223 22.3643 28.9105C22.4347 28.8423 22.544 28.7831 22.5664 28.7005C22.7786 27.9311 23.444 27.8972 24.0477 27.7994C24.6673 27.6994 25.1996 27.4151 25.6824 27.2004C25.9379 26.5281 25.5529 26.0048 25.5417 25.4358C25.5305 24.9031 25.668 24.355 25.3685 23.8372C25.2974 23.7141 25.249 23.4211 25.4342 23.2962C25.7413 23.0876 25.7099 22.6207 26.0635 22.4904C26.2223 22.432 26.4128 22.4717 26.599 22.6113C26.7769 22.7448 26.6228 23.027 26.8783 23.0682C27.0786 23.0999 27.1742 22.9408 27.263 22.821C27.4124 22.6192 27.6289 22.6348 27.792 22.6885C28.0158 22.7621 28.2088 22.9299 28.4149 23.0573C28.7083 22.7062 28.9309 23.1129 29.0789 23.2038C29.2846 23.3294 29.5231 23.4305 29.7089 23.5925C29.906 23.7639 30.0802 23.9624 30.2683 24.1442C30.3852 24.2576 30.4581 24.3723 30.4942 24.5466C30.5201 24.6711 30.6504 24.7112 30.5331 24.9107C30.4072 25.1261 30.7969 24.9583 30.8799 25.1868C31.2115 26.1005 31.7954 26.8965 32.1631 27.7994C32.2425 27.9935 32.2505 28.1476 32.1934 28.336C32.0004 28.9758 31.7146 29.5514 31.143 29.9361" fill="black"/>
<path fill-rule="evenodd" clip-rule="evenodd" d="M27.5948 0.625977C28.4443 0.673971 28.4443 0.673971 28.5829 1.59633C29.074 1.13768 29.074 1.13768 29.5734 1.00705C29.7142 1.38018 29.9083 1.7432 30.4308 1.62123C30.5019 1.60463 30.6098 1.67067 30.6766 1.72696C31.0685 2.05895 31.2204 2.59303 31.6513 2.89435C31.6303 3.53199 32.0634 4.15628 31.8285 4.77191C31.5795 5.42542 31.5167 6.12838 31.1591 6.75808C30.7217 7.52816 30.25 8.25421 29.5796 8.89943C29.2176 8.8637 28.8319 8.88175 28.6244 9.30215C28.5356 9.22348 28.4663 9.16141 28.397 9.09971C27.7569 9.74312 27.5938 10.7416 26.8049 11.2465C26.4935 11.3959 26.3098 10.9968 26.0857 11.0779C25.7923 11.184 25.6011 10.8098 25.3272 10.987C25.089 11.1415 24.8422 11.0512 24.6235 11.03C24.3947 10.7312 24.9515 10.5966 24.7141 10.3248C24.5376 10.288 24.4467 10.6034 24.2085 10.4168C24.0699 9.76802 24.298 9.18126 24.5448 8.55914C24.8122 7.88433 25.1854 7.21818 25.1522 6.45207C25.1403 6.17746 25.3297 5.99594 25.4315 5.78015C25.7317 5.14467 25.9425 4.48105 26.1835 3.82753C26.4863 3.00585 26.5768 2.10659 27.0673 1.33904C27.2228 1.09618 27.4039 0.890487 27.5948 0.625977" fill="black"/>
<path fill-rule="evenodd" clip-rule="evenodd" d="M33.8983 54.9648C33.7287 55.1622 33.9236 55.4022 33.7247 55.54C33.4418 55.5859 33.226 55.3712 33.2455 55.1886C33.3188 54.5083 32.8684 54.202 32.4311 53.861C32.3026 53.7614 32.1976 53.6322 32.0818 53.516C31.9013 53.114 32.1767 52.7989 32.2849 52.4514C32.4314 52.3482 32.5924 52.4114 32.7479 52.4103C32.9052 52.4937 32.7479 52.8394 33.0857 52.787C33.3069 52.7109 33.3906 52.385 33.3917 52.2876C33.3978 51.7073 33.5357 51.1812 33.8164 50.6829C33.5321 50.0694 33.9972 49.5436 34.0199 48.9626C34.0441 48.3477 34.3526 47.8523 34.7629 47.4034C34.9358 47.2139 35.1238 47.3276 35.3032 47.2572C35.2898 47.5939 35.7062 47.7 35.489 48.255C35.8437 47.8681 35.8293 47.46 36.1555 47.4874C36.6798 47.5311 37.2857 47.5138 37.6935 47.7758C38.0868 48.0287 38.7891 48.1381 38.7411 48.8699C38.7378 48.9222 38.7768 48.9966 38.8201 49.0301C39.5718 49.6129 39.6281 50.5291 39.9106 51.3306C40.1372 51.9718 40.3296 52.6232 40.3263 53.3262C40.3249 53.7177 39.9218 54.0111 40.1387 54.395C39.9193 54.7436 39.5126 54.9085 39.4484 55.4159C38.6498 54.7577 37.8635 55.5664 37.1017 55.3351C36.927 55.421 36.9978 55.5812 36.9227 55.6912C36.7903 55.8172 36.6145 55.6985 36.6196 55.6967C36.2916 55.8139 36.4756 56.0799 36.258 56.116C36.1512 56.0532 36.1847 55.9478 36.1772 55.8446C35.9769 55.6133 35.6846 55.832 35.4551 55.7089C35.3432 55.5967 35.2277 55.4809 35.109 55.3629C34.7727 55.5776 34.7131 55.9594 34.5389 56.3184C34.301 56.1918 34.1812 56.0254 34.2061 55.7418C34.2314 55.4513 34.2494 55.1481 33.8983 54.9648" fill="black"/>
<path fill-rule="evenodd" clip-rule="evenodd" d="M28.1979 73.4816C28.0784 73.2936 28.1492 73.1352 27.9983 73.0706C27.7948 73.2824 27.9915 73.5722 27.8756 73.8205C27.7775 73.8306 27.6887 73.8392 27.5288 73.8555V72.9068C27.347 73.4672 26.5365 73.2705 26.439 73.8501C26.29 73.6191 26.063 73.6422 25.8368 73.6621C25.6376 73.7999 25.8364 74.0413 25.6924 74.2026C25.482 74.2856 25.2594 74.243 25.0328 74.2279C24.8783 74.0233 24.996 73.7873 24.957 73.5671C24.7434 73.3402 24.5554 73.0739 24.214 73.0085C24.3114 72.848 24.184 72.5921 24.2371 72.5387C24.4742 72.3005 24.276 71.8913 24.6333 71.7015C24.9638 71.5261 24.5694 71.0509 24.9166 70.843C24.5395 70.4298 25.093 70.0719 24.9808 69.6399C24.8783 69.2469 24.9588 68.806 24.9588 68.4115C24.7838 68.3242 24.7733 68.4707 24.6831 68.5039C24.4226 68.5194 24.6795 68.204 24.4853 68.1665C24.4431 68.1957 24.3735 68.2167 24.3554 68.2596C24.1137 68.8327 23.8596 69.4104 24.0184 70.0524C24.1855 70.7246 24.2284 70.7315 23.9614 71.5759C23.8856 71.8159 24.3435 71.8953 24.0328 72.1345C23.8603 72.267 24.0992 72.6015 23.8131 72.7314C23.9285 72.9346 23.9599 73.1839 24.1552 73.3427C24.1183 73.4466 24.0364 73.4546 23.9404 73.46C23.6398 73.4769 23.449 73.3492 23.3858 73.0533C23.3328 72.805 23.4767 72.5376 23.3086 72.2976C23.1884 72.1255 23.3977 71.8895 23.1949 71.7152C23.1462 71.6741 23.1466 71.4742 23.1942 71.4373C23.5269 71.1804 23.2595 70.9625 23.2104 70.7023C23.1621 70.4475 23.1328 70.1613 23.3039 69.8658C23.5157 69.5017 23.3645 69.0925 23.2036 68.6984C23.1126 68.4765 22.9152 68.606 22.825 68.4707C23.0903 68.1445 22.9802 67.7735 22.9741 67.4426C22.8687 67.3239 22.6944 67.3506 22.6922 67.3719C22.6612 67.6656 22.2884 67.9233 22.5872 68.2517C22.3303 68.4787 22.1502 68.8467 21.6602 68.7147C21.6981 68.4999 21.7753 68.2603 21.8417 68.0738C21.9149 67.8692 22.0365 67.6855 22.0048 67.4556C21.9676 67.1886 22.2913 67.0338 22.2061 66.7487C22.1188 66.4564 22.3675 66.4326 22.5367 66.3019C22.7074 66.1709 22.4981 65.8126 22.7778 65.6636C22.6179 65.5236 22.4501 65.6113 22.2859 65.5885C22.1192 65.809 22.2386 66.1211 21.9629 66.3492C21.5577 66.6841 21.6136 66.7382 21.3607 67.6974C21.2686 68.046 21.0914 68.3718 20.9435 68.7305C20.4892 68.3993 20.5606 67.9706 20.732 67.5592C20.8757 67.2142 20.9514 66.8501 21.0662 66.5138C21.1737 66.1991 21.1167 65.7303 21.5548 65.5322C21.8496 65.3991 21.794 64.9487 22.1185 64.8094C22.2253 64.9231 22.326 65.0642 22.5865 64.9386C22.4616 64.7838 22.3411 64.6344 22.2166 64.4803C22.4782 64.3226 22.7038 64.3533 22.8932 64.6019C23.231 64.0762 23.9437 64.2378 24.2981 63.808C24.6066 63.8171 24.6784 64.0859 24.8819 64.2158C24.9223 64.0978 24.9617 63.9838 25.0025 63.8661C25.1353 63.7748 25.2641 64.1721 25.4402 63.8575C25.4907 63.7673 25.8144 63.7806 25.9919 63.8268C26.1301 63.8629 26.2471 64.0134 26.3542 64.1303C26.5076 64.2981 26.7364 64.1267 26.8995 64.2519C26.683 64.5745 26.9533 64.7845 27.0583 65.0176C27.2095 65.354 27.7316 65.0292 27.894 65.5575C27.9023 65.6015 27.6162 65.673 27.7201 65.8245C28.0986 66.3777 27.9114 67.1056 28.3 67.653C28.331 67.6967 28.2802 67.7959 28.3094 67.8443C28.5165 68.1878 27.7764 68.5252 28.3051 68.8641C28.3051 69.2249 28.3956 69.6168 28.2841 69.9394C28.1113 70.4392 28.1149 70.9336 28.1098 71.4392C28.1095 71.4998 28.1308 71.5611 28.1459 71.6441C28.3386 71.6762 28.3852 71.4846 28.484 71.3958C28.5526 71.3341 28.4393 71.1454 28.6908 71.1158C28.6966 71.9375 28.8276 72.7617 28.1979 73.4816" fill="black"/>
<path fill-rule="evenodd" clip-rule="evenodd" d="M47.3945 7.65686C47.4021 7.48798 47.4017 7.39199 47.3068 7.33028C47.0358 7.16321 46.981 7.69475 46.6981 7.49087C46.6298 7.46885 46.6111 7.42086 46.6551 7.37684C46.8796 7.15202 47.2181 6.89256 46.9229 6.5815C46.5829 6.22208 47.1296 6.08892 47.0235 5.82694C47.3324 5.7425 47.5804 5.37298 47.9589 5.62233C48.0365 5.67357 48.0845 5.77534 48.2844 5.7259C49.0841 5.09583 49.559 4.14785 49.9241 3.17136C50.0494 2.83613 50.2684 2.65533 50.4452 2.40417C51.6126 3.1941 51.6126 3.1941 52.0402 2.99996C52.3986 3.48351 52.7634 3.97031 52.7067 4.62888C52.6829 4.90205 52.7659 5.12073 52.9092 5.33364C52.5718 5.75044 52.8529 6.15099 53.003 6.50608C53.1921 6.95282 53.0232 7.39777 53.1279 7.82972C53.1409 7.88421 53.2156 7.92354 53.2776 7.98525C53.0077 8.41359 52.8944 8.94658 52.3758 9.29192C51.9396 9.20604 51.4242 9.42869 50.9266 9.18186C50.4492 8.94405 49.9021 8.9657 49.4074 8.81595C48.9498 8.67702 48.5374 8.38761 48.0751 8.14944C47.6579 8.23568 47.4108 8.62108 47.0961 8.89606C46.501 8.92637 45.9153 9.14325 45.5509 9.46478C45.0615 9.5669 44.5217 9.32657 44.0609 9.69176C43.9028 9.48571 43.7437 9.27821 43.6636 9.17392C44.4708 9.34461 44.4279 9.25042 45.5393 8.73908C46.2246 8.42405 46.6439 7.74203 47.3945 7.65686" fill="black"/>
<path fill-rule="evenodd" clip-rule="evenodd" d="M20.8596 50.4039C20.8314 50.6521 20.8138 50.8073 20.7982 50.9408C20.7383 51.0299 20.7041 51.0123 20.6427 50.9394C20.5406 50.8181 20.4128 50.7337 20.4255 50.533C20.4482 50.1736 20.4208 49.8113 20.4352 49.4512C20.4468 49.1596 20.4269 48.8752 20.2317 48.6501C19.9416 48.3145 20.0816 47.9251 20.0264 47.5783C20.4222 47.2229 20.564 46.8158 20.6586 46.3214C20.7553 45.8184 20.7362 45.28 21.0039 44.7957C21.1147 44.5954 21.0223 44.2833 21.0223 44.0311C21.228 43.82 21.4648 43.646 21.5073 43.3443H21.9166C22.1287 43.5569 21.9093 43.851 22.0551 44.0852C22.2096 44.1516 22.3947 44.1927 22.3896 43.9513C22.3846 43.6926 22.8454 43.6882 22.4853 43.2852C23.1915 43.4342 23.7025 43.6352 24.1889 43.5338C24.4754 43.5702 24.2961 43.8485 24.5476 43.9553C25.2455 44.2519 25.5107 44.7914 25.5573 45.5084C25.6136 46.3767 25.401 47.1886 25.1589 48.0041C24.9734 48.627 24.6385 49.0088 23.9312 49.0647C23.2896 49.1156 23.0067 49.5086 22.9916 50.1707C22.9858 50.4295 22.9908 50.6886 22.9908 50.9379C22.7924 51.0797 22.7927 50.8246 22.6938 50.8279C22.4326 50.712 22.3478 51.1617 22.0613 50.9827C21.8899 50.8578 22.1168 50.6085 21.9397 50.4583C21.8971 50.4832 21.8159 50.5078 21.8155 50.5338C21.8101 50.8196 21.52 51.017 21.5838 51.3334C21.6012 51.419 21.429 51.4092 21.333 51.4125C21.1497 51.3064 21.232 51.1277 21.2219 50.978C21.2107 50.8185 21.2194 50.6579 21.2194 50.5536C21.1259 50.3815 21.0137 50.4482 20.8596 50.4039" fill="black"/>
<path fill-rule="evenodd" clip-rule="evenodd" d="M8.76394 27.6963C8.96747 27.7717 9.08114 27.8139 9.18037 27.8507C9.24497 28.0048 9.18651 28.0975 9.10099 28.2087C8.94726 28.4075 8.93679 28.6273 9.14501 28.8052C9.53294 29.1375 9.4669 29.4111 9.13491 29.7726C8.95195 29.9722 8.80327 30.3132 8.98334 30.6708C8.80291 30.9393 8.59001 30.5121 8.49366 30.6055C8.25838 30.8332 8.0018 30.7199 7.75678 30.7412C7.52871 30.7607 7.29813 30.7452 7.06826 30.7452H6.35159C6.13399 30.4619 5.83989 30.1923 5.70023 29.8585C5.59919 29.6186 5.4996 29.3439 5.43031 29.0787C5.34876 28.7687 5.80308 28.641 5.53785 28.3094C5.38953 28.1242 5.46928 27.7565 5.44619 27.4707C4.99006 27.0976 4.21746 27.3621 3.9183 26.6895C3.94825 26.6595 3.99481 26.6133 4.07889 26.5292C3.97207 26.3668 3.69493 26.3788 3.63719 26.0991C3.60652 25.9511 3.56574 25.6491 3.33984 25.5538C3.41671 25.394 3.49357 25.2337 3.57296 25.0677C3.6141 25.0919 3.69132 25.1136 3.69493 25.1443C3.71081 25.2727 3.66931 25.4189 3.71658 25.5304C3.76422 25.6422 3.89196 25.7198 3.98326 25.8111C4.13843 25.7563 4.0677 25.6 4.13157 25.486C4.35386 25.5203 4.6061 25.8653 4.78762 25.373C4.86051 25.5639 4.90345 25.6769 4.96191 25.831C5.10301 25.8176 5.31447 25.8624 5.4 25.779C5.83195 25.355 6.35953 24.9949 6.58326 24.4063C6.75431 23.9574 7.11084 23.7217 7.41901 23.4045C7.71708 23.598 7.70337 23.8347 7.5713 24.0018C7.4035 24.214 7.40314 24.3955 7.52547 24.6647C7.70518 24.4655 7.9152 24.3081 8.01912 24.0981C8.13749 23.8578 8.22337 23.6442 8.53119 23.6626C8.72858 23.8913 8.55212 24.1768 8.64305 24.4092C8.89746 24.4164 8.78884 24.2461 8.82637 24.1389C9.06706 23.9689 9.30704 23.9884 9.48386 24.2352C9.62784 24.4359 9.68125 24.6957 9.90498 24.848C10.0706 24.9609 10.0428 25.1767 9.9887 25.294C9.71734 25.88 9.61593 26.5173 9.43009 27.1268C9.32436 27.4729 9.11145 27.5552 8.76394 27.6963" fill="black"/>
<path fill-rule="evenodd" clip-rule="evenodd" d="M60.0037 7.31927C60.2007 7.3153 60.2285 7.53831 60.3996 7.58883C60.3198 7.67724 60.2585 7.7458 60.1971 7.81401C60.2538 7.90242 60.3469 7.93598 60.4414 7.90963C60.6634 7.84721 60.7186 7.55274 60.9881 7.51594C61.2732 7.53434 61.4121 7.82772 61.6655 7.95691C62.3114 8.28601 62.6777 9.55191 62.4572 10.2733C62.2854 10.8333 62.2926 11.3851 62.5149 12.0144C62.4969 12.1028 62.336 12.0151 62.2302 12.0779C62.009 12.3623 62.2562 12.5868 62.3637 12.8343C62.2941 13.1107 62.0068 13.2009 61.8874 13.4312C61.5955 13.1858 61.3349 13.0609 60.9333 13.2071C60.5807 13.3355 60.4274 12.9252 60.2033 12.7361C60.2704 12.6521 60.3234 12.5867 60.3765 12.5204C60.1242 12.3118 59.9983 12.5146 59.8868 12.6542C59.6753 12.918 59.7486 13.3738 59.2737 13.477C59.121 13.5102 59.2232 13.7704 59.2113 13.9259C59.1878 14.2297 59.0128 14.3672 58.7544 14.4192C58.4755 14.2785 58.7508 13.9573 58.5188 13.8194C58.0641 14.1514 58.2687 14.8966 57.6191 15.2091C57.8032 14.5657 58.0136 13.9999 58.1189 13.4149C58.2254 12.8253 58.8172 12.359 58.5415 11.598C58.1655 12.3486 57.9688 13.0869 57.7061 13.809C57.6231 13.4055 57.6422 13.0447 57.8118 12.6376C58.137 11.8564 58.3517 11.0289 58.6187 10.2231C58.762 9.79224 58.902 9.35849 59.0799 8.9417C59.1275 8.82983 59.1936 8.73745 59.2149 8.60321C59.3282 7.89556 59.3722 7.83818 60.0037 7.31927" fill="black"/>
</g>
</svg>
