<svg width="94" height="135" viewBox="0 0 94 135" fill="none" xmlns="http://www.w3.org/2000/svg">
<g opacity="0.2">
<path fill-rule="evenodd" clip-rule="evenodd" d="M103.419 33.7698C103.464 33.8653 103.578 34.1046 103.719 34.4064C103.824 34.37 103.937 34.3301 104.094 34.2748C104.344 34.417 104.85 34.3262 104.933 34.7726C105.009 35.1743 105.692 34.9952 105.556 35.5183C106.112 35.9625 106.121 36.6757 106.238 37.2573C106.345 37.7848 106.689 38.232 106.646 38.8259C106.609 39.3422 106.833 39.878 106.943 40.4072C106.768 40.5982 106.606 40.775 106.381 41.0207C106.559 41.1137 106.693 41.1837 106.903 41.2936C106.911 41.428 106.925 41.6493 106.939 41.8891C107.222 42.0332 107.489 42.169 107.802 42.3281C107.817 42.5621 107.832 42.7945 107.849 43.0482C107.975 42.9882 108.094 42.9319 108.296 42.8361C108.246 43.127 108.206 43.3664 108.163 43.6179C108.225 43.6229 108.321 43.6304 108.473 43.642C108.158 44.3297 107.262 44.3269 106.927 45.0968C106.832 45.6845 107.081 46.4405 106.759 47.1334C106.635 47.401 107.161 47.5923 106.784 47.8855C106.649 47.9899 107.122 48.2858 106.767 48.491C107.011 48.9435 106.84 49.3941 106.815 49.8585C106.793 50.2436 106.844 50.6661 106.917 51.0667C106.977 51.4004 107.023 51.7372 107.069 52.0734C107.112 52.3777 107.118 52.6908 107.197 52.9851C107.265 53.2358 107.544 53.4998 107.492 53.6955C107.422 53.9587 107.413 54.1769 107.602 54.4371C107.34 54.5031 107.181 54.5437 107.021 54.5842C106.861 55.0501 106.693 55.509 105.999 55.4379L105.204 54.6431C104.268 54.9046 103.347 55.2361 102.304 54.7538C102.074 54.4804 101.596 54.2461 101.544 53.7097C100.49 53.3593 100.201 52.4601 99.9545 51.5365C99.6575 50.4249 99.5906 49.2891 99.6633 48.1087C98.7422 47.9243 97.8421 47.7944 96.9732 47.5534C96.3755 47.3877 95.7203 47.21 95.2716 46.7853C94.8069 46.345 94.1922 46.0151 94.0032 45.2864C93.9182 44.9605 93.5048 44.7786 93.3694 44.3727C93.2877 44.129 93.1573 43.898 93.1262 43.6171C93.1095 43.4655 92.9657 43.3278 92.798 43.049C92.8069 42.8086 92.9635 42.34 92.8022 42.0482C92.5673 41.6246 93.1142 41.3286 92.7231 40.9497C92.9143 40.9233 92.9993 40.9116 93.1314 40.8933C93.2542 40.6673 93.393 40.4119 93.5382 40.1457C93.7553 40.2129 93.9374 40.2689 94.1586 40.3375C94.2808 40.7612 94.4143 41.224 94.5676 41.7559C94.9049 41.3447 95.165 41.0268 95.3874 40.7556C95.5889 40.7556 95.6958 40.7553 95.8147 40.7553C95.9118 41.0546 96.0104 41.3569 96.1406 41.7559C96.4024 41.5429 96.6056 41.3775 96.8574 41.1723C97.0687 41.4963 97.2811 41.8208 97.4898 42.1401C97.4793 42.3228 97.4682 42.5204 97.4568 42.7239C97.5928 42.7239 97.6572 42.7323 97.6597 42.7226C97.7039 42.569 97.7405 42.413 97.7869 42.2245C97.9326 42.2909 98.0226 42.3314 98.1389 42.3839C98.0331 42.7067 97.9326 43.0138 97.8177 43.3636C97.9615 43.292 98.0756 43.235 98.2866 43.1295C98.2869 43.4907 98.2872 43.8114 98.288 44.2298C98.7644 44.1737 99.1869 44.1243 99.6397 44.0712C100.083 43.7695 100.225 43.3131 100.265 42.767C100.358 41.5044 100.592 40.2489 100.672 38.9933C100.753 37.7076 100.89 36.3906 100.57 35.0971C100.495 34.7945 100.558 34.458 100.559 34.1146L101.355 33.3179C101.454 33.3295 101.624 33.3498 101.8 33.3698C101.961 33.7054 102.128 34.0508 102.344 34.5C102.519 34.1921 102.661 33.9422 102.846 33.6169C102.956 33.646 103.126 33.6915 103.419 33.7698" fill="black"/>
<path fill-rule="evenodd" clip-rule="evenodd" d="M71.3167 97.7626C71.1471 98.0844 71.008 98.349 70.8278 98.6907C70.7551 98.4908 70.7071 98.359 70.646 98.1918C70.2104 98.1038 69.7795 98.0661 69.4719 98.4775C69.3381 98.3992 69.2521 98.3487 69.1321 98.2787L68.5066 98.9042C68.3817 98.9042 68.2979 98.9286 68.241 98.9001C67.8564 98.7071 67.493 98.3842 67.0927 98.3315C66.5777 98.264 66.4034 97.867 66.111 97.5952C65.8734 97.3748 65.7313 97.0478 65.5577 96.7615C64.9381 95.7377 64.4692 94.6436 64.1241 93.5023C63.9123 92.8002 63.7418 92.0806 63.6205 91.3574C63.502 90.6508 63.4698 89.9296 63.397 89.1922C63.249 89.2247 63.083 89.2563 62.9195 89.2982C61.339 89.7038 59.7296 89.8341 58.1031 89.8204C57.3354 89.8141 56.8138 89.2969 56.2247 88.9298C55.9887 88.7833 55.8155 88.5351 55.6136 88.3332C55.429 87.7416 55.8063 87.2988 56.0459 86.7427C56.416 86.8446 56.7963 86.9496 57.2247 87.067C57.2319 87.0198 57.2444 86.9379 57.2666 86.7908C57.3701 86.7905 57.5112 86.7488 57.6097 86.7963C58.218 87.0881 58.8146 86.9496 59.4001 86.7538C60.5922 86.3563 61.776 85.936 63.0439 85.4971C63.0325 85.0864 62.9084 84.5631 63.0364 84.1114C63.1541 83.695 62.7407 83.2539 63.1982 82.8785C63.0658 82.8649 62.9736 82.8555 62.8365 82.8416C62.8748 82.6245 62.9137 82.4046 62.9678 82.0984C62.8992 81.916 62.7949 81.6378 62.6924 81.3655C62.8137 81.2292 62.9264 81.1026 63.0889 80.9202C62.9212 80.8991 62.8337 80.8883 62.6977 80.871C62.9723 80.5026 62.6608 80.1484 62.6844 79.7672C62.7091 79.3644 62.6008 78.9535 62.5436 78.491C62.6216 78.4791 62.703 78.4666 62.8582 78.443C62.8049 78.3108 62.7543 78.1864 62.691 78.0304C62.7899 78.0199 62.8809 78.0099 63.0458 77.9927C62.6133 77.3619 62.4884 76.634 62.4253 75.9302C62.3601 75.2048 62.203 74.4541 62.4786 73.6493C62.6022 73.6373 62.7676 73.6212 62.9548 73.6029C63.1513 74.2265 63.3509 74.8397 63.1274 75.4913L63.7329 76.0968C63.8112 75.968 63.9212 75.8675 63.9026 75.805C63.8268 75.5538 63.7113 75.3145 63.6624 75.1962C63.7257 74.5399 63.7776 74.0038 63.8432 73.3275C64.1471 73.5893 64.3451 73.7606 64.5355 73.9244C64.4689 74.0838 64.4181 74.2051 64.3648 74.3328C64.4206 74.3419 64.5125 74.3755 64.5247 74.3567C64.6707 74.1351 64.8048 73.9055 64.9731 73.6268C65.148 73.6751 65.3609 73.7337 65.5752 73.7925C65.58 73.8805 65.5852 73.9852 65.5911 74.0982C65.842 74.2859 66.2993 74.2156 66.3465 74.6709C66.2335 74.6768 66.133 74.6818 66.03 74.6865C66.0519 74.7584 66.053 74.8567 66.0944 74.878C66.211 74.9391 66.3442 74.9685 66.5175 75.0252C66.8603 75.4513 66.8084 76.0141 66.7829 76.5588C66.7587 77.0743 66.6777 77.5868 66.6091 78.2123C66.8337 78.1515 67.0294 78.099 67.2496 78.0399C67.3298 78.2944 67.3781 78.4482 67.4286 78.6098C67.4967 78.6134 67.5977 78.6179 67.7554 78.6256C67.6171 78.8166 67.5008 78.9779 67.3342 79.2095C67.5264 79.2933 67.6902 79.3644 67.88 79.4471L67.3759 79.9513C67.4742 80.2367 67.5599 80.4857 67.6416 80.7228C67.7915 80.7283 67.8964 80.7322 68.0475 80.7378C67.9214 80.921 67.8087 81.0854 67.6449 81.3247C67.8226 81.4046 67.9833 81.476 68.1738 81.5615C68.0636 81.71 67.9447 81.8699 67.7898 82.0781C67.9869 82.1686 68.1468 82.2419 68.4117 82.3635C68.138 82.484 67.9386 82.5718 67.6982 82.6778C67.7721 82.9149 67.8476 83.157 67.9209 83.3924C68.0047 83.4185 68.0763 83.4674 68.1291 83.4518C68.2221 83.4243 68.2973 83.3369 68.3903 83.3105C68.7515 83.2081 69.1055 83.4538 69.4619 83.3544C69.8464 83.2475 70.1915 83.3788 70.5602 83.4343C70.8922 83.4843 71.1579 83.5407 71.3839 83.7983C71.4611 83.8866 71.6227 83.9004 71.772 83.9582C71.8001 84.0662 71.8398 84.2203 71.8945 84.431C71.7134 84.6592 71.8386 85.082 71.3206 85.3108C70.4156 85.71 69.5102 86.1622 68.7168 86.7852C68.6727 86.8199 68.5774 86.7897 68.4486 86.7897C68.475 87.2302 68.5011 87.6678 68.5341 88.2172C68.5583 88.248 68.6635 88.381 68.7768 88.5248C68.6546 88.6925 68.5377 88.8532 68.3559 89.1028C68.6982 89.1603 68.9539 89.2033 69.3351 89.2674C69.1035 89.394 68.9494 89.4787 68.7534 89.5859C68.7593 89.6544 68.7709 89.7932 68.7834 89.944C69.1135 90.0986 69.1913 90.3174 69.0685 90.7627C69.289 91.153 69.5008 91.5281 69.6776 91.841C69.5966 92.0164 69.5513 92.1144 69.493 92.241L69.8245 92.241C69.7715 92.6405 69.6521 93.0403 69.6871 93.4262C69.7182 93.7743 69.9186 94.1069 70.0641 94.4989C70.0944 94.5053 70.2185 94.53 70.4153 94.5692C70.4203 94.9079 70.4253 95.2404 70.4297 95.5603C70.5677 95.5755 70.6693 95.5866 70.8453 95.6061C70.8611 95.8446 70.8767 96.0789 70.8939 96.3398L71.3353 96.7812C71.3287 97.1322 71.322 97.4881 71.3167 97.7626" fill="black"/>
<path fill-rule="evenodd" clip-rule="evenodd" d="M92.9532 82.1605C93.7261 82.2338 93.7272 82.2343 93.9171 81.5752C94.0646 81.6988 94.1784 81.8209 94.3164 81.9006C94.4144 81.957 94.5451 81.9567 94.6528 81.98C94.6531 82.088 94.6528 82.1594 94.6528 82.2504C94.808 82.1941 94.9565 82.1405 95.1995 82.0525C95.2725 82.4697 95.3411 82.8631 95.4102 83.2565C95.9951 83.4234 95.6195 83.9322 95.7572 84.1971C95.9701 84.606 95.6589 85.0511 95.9804 85.3942C96.3555 85.7942 96.0057 86.2396 96.0587 86.6379C96.1051 86.9841 95.9668 87.3789 96.1828 87.6637C96.3447 87.7062 96.4726 87.7398 96.6831 87.7953C96.5856 88.146 96.5012 88.4519 96.4163 88.7584L96.1673 89.4539C96.1931 89.7667 96.2189 90.0796 96.253 90.4974L96.4016 90.646C96.2733 91.4844 96.1542 92.2681 96.0154 93.1776C96.2417 93.104 96.3788 93.0596 96.6062 92.986C96.6892 93.4855 96.7733 93.991 96.8635 94.5343C97.6434 94.1509 98.3774 93.7906 99.1345 93.4188C99.1908 93.5868 99.2383 93.7287 99.3027 93.9208C99.6439 93.7589 99.9629 93.6076 100.327 93.4349L100.656 93.7642C100.98 93.7506 101.264 93.7384 101.558 93.7262C101.746 93.8947 101.924 94.056 102.095 94.2098L102.644 94.2095L102.527 95.4857C102.546 95.8325 102.341 95.9696 102.035 96.0315C101.943 96.0504 101.843 96.1076 101.777 96.1767C101.012 96.9757 100.008 97.3847 99.0368 97.8358C98.3205 98.1689 97.5704 98.4288 96.7919 98.7386C96.7914 99.0351 96.6723 99.3785 96.9479 99.7136C96.7081 100.102 96.4624 100.501 96.2322 100.874C95.9193 100.872 95.6698 100.871 95.4193 100.869C95.4143 100.77 95.4094 100.667 95.4019 100.515C95.1709 100.434 94.9221 100.347 94.7739 100.295C94.5759 100.565 94.401 100.805 94.23 101.038C93.8971 100.929 93.597 100.83 93.29 100.729C93.29 100.829 93.29 100.9 93.29 100.926C92.9524 100.923 92.6123 100.921 92.1426 100.918C91.6898 100.32 90.7503 100.053 90.1884 99.3105C90.071 99.1548 89.7686 99.0618 89.5552 99.0687C88.6893 99.0962 88.0643 98.5096 87.3389 98.2039C87.0618 98.0873 86.7265 97.923 86.4816 97.692C86.0921 97.3258 85.6598 96.9818 85.3575 96.5501C84.8792 95.8675 84.37 95.1384 84.8175 94.2339C84.9655 93.9349 85.2032 93.6806 85.4489 93.3372L86.6296 94.5179C86.7209 94.0968 86.782 93.8147 86.8731 93.3939C87.013 93.4627 87.1801 93.5443 87.3467 93.6265C87.3558 93.5596 87.365 93.4927 87.3742 93.4258L88.0707 94.1223C88.1348 93.9261 88.1812 93.7842 88.2248 93.6501C88.8269 93.6098 89.1784 93.978 89.5041 94.3925C89.6495 94.3231 89.7678 94.2664 89.9577 94.1759C90.0601 94.3977 90.1615 94.6184 90.2839 94.8852C90.3555 94.782 90.4041 94.7428 90.4088 94.6987C90.4211 94.5932 90.3783 94.4694 90.4183 94.3805C90.8192 93.4882 90.4571 92.4755 90.8672 91.5874C90.5277 90.9869 90.923 90.3911 90.8958 89.7848C90.8677 89.1543 91.0785 88.5149 91.1673 87.877C91.2531 87.2593 91.0032 86.613 91.3214 86.0133C91.074 85.1629 91.0921 84.3131 91.3217 83.4628C90.931 83.1099 91.3963 82.5525 90.9924 82.1724L91.6751 81.4897C91.7725 81.4895 91.9152 81.4894 92.0579 81.4894C91.8938 81.9789 92.0901 82.4139 92.2148 82.9567C92.7606 82.598 92.4705 81.7871 93.1506 81.6149C93.0851 81.7959 93.0315 81.9439 92.9532 82.1605" fill="black"/>
<path fill-rule="evenodd" clip-rule="evenodd" d="M83.1948 75.9147C82.8056 75.596 83.2648 75.0591 82.699 74.9653C82.6926 75.0794 82.6865 75.1804 82.6804 75.2815C82.6446 75.2812 82.5979 75.2962 82.5749 75.2793C82.1479 74.9644 81.8186 74.5902 81.7795 74.0247C81.737 73.4031 81.6893 72.7812 81.6249 72.1616C81.6046 71.9658 81.5235 71.7765 81.4577 71.538C80.9633 71.3179 80.405 71.1355 79.8736 70.9306C79.3031 70.7104 78.8784 70.2779 78.2967 70.0772C77.9877 69.9709 77.8875 69.342 77.5713 69.1497C77.2171 68.9348 76.807 68.8606 76.7843 68.347C76.0391 67.5919 76.0816 66.6144 76.0069 65.6475L77.2681 64.3862C77.412 64.3823 77.5544 64.3787 77.7845 64.3723C77.8373 64.8088 77.8897 65.2455 77.948 65.7285C78.0222 65.7555 78.1998 65.8193 78.4378 65.9051C78.5088 65.834 78.6857 65.7388 78.6862 65.6422C78.6901 65.2246 79.0172 65.0647 79.2146 64.8185C79.4738 64.914 79.6904 64.9939 79.9311 65.0825C79.9594 65.3385 79.9888 65.6028 80.033 66.0034C80.337 65.7682 80.5407 65.6105 80.8087 65.4032L81.5344 66.1289C82.0624 65.6341 81.4991 64.9587 81.9322 64.5306C81.83 64.0375 81.908 63.5453 81.9275 63.0511C81.9502 62.4815 81.9422 61.9098 81.9302 61.3393C81.9189 60.8138 81.9125 60.2855 81.8536 59.7647C81.7925 59.2283 81.6715 58.6986 81.6118 58.3641C81.8125 57.939 81.9255 57.6994 82.066 57.4024C82.2395 57.4326 82.4605 57.4188 82.6151 57.5134C82.734 57.5862 82.785 57.7899 82.8372 57.9449C82.8964 58.1211 82.9227 58.308 83.1307 58.5143C83.2584 58.2005 83.3858 57.8866 83.5263 57.5412C83.9086 57.6642 84.3178 57.7958 84.9383 57.9954C84.9297 57.9868 85.0665 58.1481 85.2287 58.2774C85.3547 58.3779 85.5121 58.4393 85.6998 58.542C85.722 58.6242 85.7636 58.7758 85.8022 58.916C85.961 58.9221 86.0665 58.926 86.1604 58.9293C86.4241 60.0703 86.7564 61.1922 86.9552 62.3532C87.122 63.3279 87.2187 63.3113 87.0843 63.7688C87.1839 63.7741 87.2844 63.7791 87.3652 63.7832C87.4374 65.0536 87.5093 66.3137 87.5823 67.5928L87.8336 67.844C88.609 67.6722 89.3591 67.5056 90.1434 67.3315C90.21 67.5369 90.2508 67.6627 90.3144 67.8573C90.6514 67.8318 91.0729 68.0095 91.3133 67.5481C91.5429 67.6238 91.7303 67.6858 91.9146 67.7468C91.9321 67.8526 91.9535 67.9839 91.9829 68.1638C92.363 68.1641 92.7042 68.1644 93.0731 68.1647C93.1836 68.4156 93.278 68.6294 93.3824 68.8665C93.5143 68.9012 93.6731 68.9434 93.8194 68.982C93.8502 69.0661 93.9013 69.1338 93.8902 69.1888C93.8644 69.3118 93.7644 69.4306 93.7716 69.5466C93.8135 70.2399 93.7758 70.3187 93.2264 70.5883C92.5148 70.9373 91.838 71.4009 91.089 71.6208C90.0856 71.9156 89.0276 72.0241 87.8933 72.2307C87.82 72.7204 87.7897 73.322 87.8105 73.9514C87.8308 74.5602 87.6923 75.1974 87.3136 75.897C87.2517 75.6452 87.2264 75.5422 87.1706 75.3181C86.8958 75.719 86.6651 76.0552 86.4347 76.3911L86.2886 76.3423C86.3261 76.0388 86.3636 75.7359 86.4013 75.4328L85.8744 75.4328L85.3575 75.9497C85.1157 75.8456 84.8453 75.7284 84.5271 75.5913L83.8997 76.2187C83.596 76.0877 83.3236 75.9703 83.1948 75.9147" fill="black"/>
<path fill-rule="evenodd" clip-rule="evenodd" d="M71.6226 57.7743C71.425 58.0964 71.2509 58.3804 71.0052 58.781C70.4283 58.8676 69.7262 58.9589 69.0302 59.0819C68.2001 59.2285 67.3406 59.2174 66.5424 59.5342C66.3575 59.6075 66.1818 59.7027 65.9381 59.8176C65.395 59.7094 64.7651 59.13 64.194 59.8343C63.6419 59.859 63.1485 59.4362 62.6824 59.8135C62.3093 59.7163 61.9531 59.5345 61.6038 59.5478C60.0086 59.6077 58.4878 59.2846 56.8604 58.6872C56.4723 58.3884 56.0142 57.9309 55.4809 57.5459C54.6411 56.9392 54.4054 55.9329 54.6308 54.9057C54.6933 54.6222 54.5395 54.2902 54.8526 54.0287C55.0706 53.8468 55.1752 53.5295 55.3754 53.1989C55.5239 53.1903 55.7205 53.1786 55.9684 53.1639C56.1133 53.7358 55.9359 54.3657 56.3868 54.8776C57.0203 54.5611 56.7055 53.8205 57.1227 53.2816C57.2332 53.2755 57.429 53.2641 57.6133 53.2541C57.698 53.6775 57.7549 53.9626 57.8598 54.4879C58.0833 54.0578 58.314 53.8238 58.2868 53.625C58.2177 53.1222 58.4537 52.6569 58.339 52.1353C58.2324 51.6495 58.3226 51.1178 58.434 50.5934C58.5916 49.8521 58.5364 49.0684 58.6186 48.3077C58.7393 47.1897 58.7735 46.0629 59.0489 44.9585C59.1583 44.5221 59.0753 44.0354 59.0644 43.5715C59.0544 43.1495 59.2874 42.7278 59.03 42.3411L60.0483 41.3228L60.7052 41.9796C60.7052 42.0363 60.7052 42.2317 60.7054 42.4674C60.8162 42.3083 60.9317 42.1545 61.0339 41.9924C61.1377 41.8275 61.2288 41.6543 61.3767 41.3947C61.8345 41.9147 62.2909 42.3239 62.9595 42.2861C62.9853 42.4607 63 42.5604 63.0302 42.7617C63.1974 42.7134 63.3906 42.6567 63.7504 42.5518C63.5766 42.8566 63.5175 42.9602 63.437 43.1018C63.5758 43.1562 63.7226 43.1898 63.8412 43.2672C63.9586 43.343 64.0466 43.4632 64.1457 43.5623C64.2504 44.2284 64.3548 44.8946 64.4694 45.6262C64.4192 45.6892 64.3129 45.8216 64.1566 46.0162C64.2832 46.0362 64.3617 46.0493 64.4642 46.0657C64.5272 46.2192 64.5971 46.3896 64.6746 46.5798C63.9761 47.2139 64.6579 47.9052 64.5133 48.5845C64.7151 48.612 64.8154 48.6256 64.8612 48.632C64.8614 49.1803 64.8614 49.7333 64.8612 50.2916C64.9042 50.2897 64.8359 50.293 64.8653 50.2913C64.8651 50.5398 64.8651 50.7963 64.8653 51.0531C64.7912 51.0623 64.7176 51.0714 64.6435 51.0806L65.0422 51.4793C64.8817 51.4948 64.7884 51.5037 64.5797 51.5242C64.7748 51.6689 64.9048 51.7649 65.0871 51.9001C65.1429 52.3341 65.2101 52.856 65.2831 53.4215C65.0913 53.4512 64.96 53.4709 64.8434 53.4887C64.8895 54.08 64.9367 54.6864 64.9844 55.2982C65.1471 55.2438 65.297 55.1933 65.5155 55.1197C65.5519 55.4282 65.5833 55.6933 65.6127 55.942C65.6918 55.9856 65.7484 56.0423 65.8081 56.0459C66.7862 56.1017 67.7953 56.017 68.734 56.2366C69.7912 56.4837 70.9705 56.6508 71.6226 57.7743" fill="black"/>
<path fill-rule="evenodd" clip-rule="evenodd" d="M71.1817 36.3233C71.1817 36.23 71.1817 36.1584 71.1817 36.0845C71.1195 36.0768 71.0562 36.0595 70.994 36.0623C70.6187 36.0795 70.2172 36.1739 69.883 36.1573C69.5557 36.1414 69.2506 36.185 68.9357 36.1856C68.5171 36.1861 67.984 36.1206 67.7039 35.8627C67.2028 35.401 66.6909 34.9474 66.3008 34.3286C65.6273 33.2603 65.4241 32.1448 65.4266 30.9391C65.4297 29.4086 65.4277 27.8781 65.4277 26.269C64.8594 26.3114 64.3475 25.8306 63.7673 26.2176C63.169 26.0258 62.5715 25.8331 61.9733 25.6413C61.4214 25.4641 61.0616 25.0372 60.674 24.6457C60.3983 24.3667 60.1199 24.0905 59.8425 23.8131C59.772 23.2323 59.7015 22.6516 59.6326 22.0808L60.8939 20.8195C61.0368 21.3667 61.159 21.8348 61.2792 22.2943C62.0843 22.1665 61.5219 21.2615 62.1554 21.0755C62.7612 21.1699 62.4502 21.8106 62.6382 22.3001C62.8594 21.9395 62.9877 21.7296 63.1448 21.473C63.6273 21.7101 63.8808 22.0863 64.0254 22.618C64.169 22.5549 64.282 22.5052 64.4521 22.43C64.6334 22.4364 64.4655 22.6316 64.5729 22.8006C64.8805 22.865 65.255 22.9436 65.7181 23.0408C65.6565 20.4806 66.3708 18.0089 65.8477 15.5375L66.6073 14.7779C66.7986 15.0864 66.9657 15.3557 67.1942 15.7241C67.3308 15.4387 67.436 15.2191 67.5801 14.9179L68.1676 15.5053C68.3211 15.4156 68.4071 15.3651 68.4935 15.3149C68.5551 15.3382 68.6265 15.3496 68.6759 15.3884C68.7594 15.4537 68.8191 15.5517 68.9066 15.6102C69.8469 16.2424 70.0793 17.2576 70.2575 18.2576C70.4507 19.3393 70.5226 20.4428 70.6567 21.6196C71.4754 21.6943 72.2875 21.3165 73.228 21.2099C73.3066 21.269 73.4385 21.3692 73.5906 21.4842C73.9029 21.5189 74.2952 21.4625 74.5742 21.6144C75.1858 21.9472 75.9704 22.0422 76.3457 22.8861C76.3146 22.9694 76.2505 23.1574 76.1764 23.3414C76.1022 23.5249 76.0181 23.7035 75.9287 23.9067C75.5245 23.9033 75.1364 24.4208 74.8005 23.9633C74.2047 24.292 73.6803 24.581 73.172 24.8611C72.9249 24.7945 72.7008 24.7343 72.4476 24.666L71.6114 25.5022C71.5001 25.433 71.4154 25.3811 71.3111 25.3167C70.7639 25.3881 70.7841 25.928 70.6517 26.1571C70.6911 26.6907 70.7214 27.099 70.7542 27.5499C70.6487 27.5643 70.564 27.5757 70.4177 27.596C70.4546 27.8117 70.4943 28.0441 70.5426 28.3272C70.5068 28.3225 70.594 28.3336 70.7231 28.35C70.4601 28.7889 70.7822 29.172 70.9179 29.6165C70.7219 29.6632 70.5931 29.6937 70.3957 29.7406C70.5054 29.8919 70.6128 30.0399 70.7394 30.2153C70.7014 30.2817 70.6517 30.368 70.5631 30.5227C70.8374 30.8619 71.1675 31.2792 70.6109 31.632C70.6562 31.9827 70.5842 32.4227 70.755 32.5585C71.2678 32.9668 71.1023 33.5726 71.3571 34.0379C71.7625 34.5426 71.7691 34.5354 72.2144 34.6981C72.1475 35.2903 71.9524 35.8391 71.6342 36.3755C71.5079 36.3608 71.3671 36.3449 71.1817 36.3233" fill="black"/>
<path fill-rule="evenodd" clip-rule="evenodd" d="M18.3493 72.0472C18.1841 72.259 18.0847 72.3867 17.9592 72.5477C18.143 72.5571 18.2474 72.5621 18.4148 72.5707C18.5764 73.1082 18.4298 73.674 18.4939 74.2212L18.7304 74.2212C18.6891 74.5646 18.6474 74.9083 18.6122 75.2007C18.7601 75.5296 19.2224 75.6054 19.0516 76.0716C19.5228 75.9785 19.9495 75.8894 20.3778 75.8109C21.7218 75.5652 23.043 75.1862 24.4378 75.2706C25.2365 75.3186 25.9991 75.3744 26.6138 75.9758C26.7173 76.0771 26.9225 76.074 27.1557 76.1412C27.0718 76.5144 26.993 76.8636 26.8944 77.3014C24.498 77.9272 22.1468 78.7003 19.5577 78.9769C19.5136 79.1382 19.3387 79.4119 19.4126 79.5685C19.7049 80.189 19.7038 80.8308 19.7032 81.4849C19.7032 81.5648 19.8129 81.6445 19.872 81.7253C19.7474 81.8811 19.641 82.0129 19.4792 82.2148C19.6338 82.2994 19.7651 82.3713 19.995 82.4974C19.9475 83.0329 20.093 83.6137 20.4292 84.1792C20.6244 84.5076 20.588 84.9732 20.6793 85.5143L22.3245 87.1595C22.1904 87.3119 22.0785 87.4388 21.952 87.5826C22.0047 87.6936 22.0613 87.8124 22.1294 87.9549L21.6074 88.4768C21.2893 88.3219 20.9631 88.1628 20.5869 87.9798C20.5055 88.1889 20.4242 88.3974 20.3273 88.6459C20.1818 88.5715 20.0677 88.5134 19.9536 88.4554C19.8931 88.4804 19.8065 88.4882 19.7751 88.534C19.5155 88.9151 19.0253 88.8635 18.8134 88.7305C17.9509 88.1894 16.8026 87.9496 16.4853 86.76C15.7471 86.0057 15.6411 84.9729 15.2546 84.0612C15.1286 83.7636 15.5345 83.4321 15.0686 83.1662C14.8771 83.0568 14.9118 82.5451 14.8504 82.215C14.7949 81.9158 14.7255 81.617 14.7038 81.315C14.6783 80.9602 14.7194 80.6004 14.6916 80.2461C14.668 79.951 14.5869 79.6606 14.5245 79.3322C12.9134 79.5613 11.369 79.1423 9.8088 78.8719C8.71636 78.1931 7.49899 77.6904 6.60144 76.5141C6.56979 76.0566 6.52898 75.4711 6.48567 74.842C6.87656 74.5843 7.04008 74.0188 7.67417 74.0605C7.74163 74.516 7.80853 74.9683 7.87627 75.4252C7.98649 75.4283 8.08949 75.4319 8.19082 75.435C8.68665 75.109 8.23913 74.3606 8.80686 74.0699C8.99453 74.1299 9.1822 74.1904 9.37765 74.2526C9.33018 74.4694 9.27604 74.7179 9.21885 74.9783C9.41291 74.9786 9.55561 74.9786 9.6983 74.9786C9.69081 74.5424 9.89625 74.3314 10.4515 74.3831C10.5978 74.5749 10.9731 74.6882 10.9171 75.1379C11.0725 75.0835 11.2247 75.0302 11.4418 74.9536C11.4834 75.2367 11.5201 75.4877 11.5578 75.7448C11.6963 75.679 11.8149 75.6221 12.0636 75.5038C11.9404 75.7181 11.8818 75.8195 11.7796 75.9971C11.9173 76.1054 12.0561 76.3031 12.2202 76.3272C12.8998 76.4272 13.5869 76.4747 14.3465 76.5485C14.366 76.1904 14.3848 75.9194 14.3943 75.6485C14.4503 74.0477 14.2174 72.4283 14.698 70.8539C14.4079 70.5749 14.7257 70.297 14.7016 70.0164C14.6744 69.6988 14.6769 69.3787 14.6697 69.1632L15.1785 68.6543C15.2874 69.2246 15.0861 69.8095 15.7035 70.1704C15.8362 69.6457 15.9662 69.1321 16.1247 68.5066C16.3137 68.7657 16.4592 68.9656 16.625 69.1924C16.8312 69.1244 17.1386 69.0241 17.4678 68.9159C17.5283 69.0891 17.5786 69.2337 17.6377 69.4028C17.7335 69.3403 17.8165 69.2857 17.9034 69.2287C17.9403 69.2507 18.0194 69.2721 18.0242 69.3045C18.0886 69.7376 18.0616 70.2043 18.2199 70.5974C18.4187 71.0905 18.2499 71.5708 18.3493 72.0472" fill="black"/>
<path fill-rule="evenodd" clip-rule="evenodd" d="M39.8979 65.9545C39.7611 64.6111 39.6553 63.4865 39.5304 62.3638C39.4121 61.3005 39.1781 60.2586 38.8916 59.2375C38.7866 59.2264 38.685 59.2158 38.5109 59.1978C38.4937 58.9241 38.4762 58.6528 38.4579 58.3652L38.9568 57.8663C39.3299 57.8663 39.7463 57.9824 40.0279 57.8369C40.3713 57.6589 40.6167 57.8305 40.8777 57.881C41.7819 58.0557 42.5831 58.3494 43.0056 59.3327C43.2655 59.9374 43.5234 60.5445 43.7744 61.1542C43.8501 61.3377 43.9465 61.5129 44.0753 61.7788L44.0756 62.5437L44.552 63.0201C44.7949 63.8616 44.9978 64.5626 45.2194 65.3293C45.8521 65.2086 46.4459 65.1084 47.0339 64.9812C48.1991 64.7294 49.3523 64.7105 50.4817 65.1397C50.7246 65.2322 50.9453 65.384 51.2854 65.5675C51.3182 65.6542 51.3992 65.8668 51.4875 66.1006C51.4042 66.3293 51.3143 66.5764 51.2438 66.7691C50.7649 67.002 50.3581 67.2249 49.932 67.4007C49.5058 67.577 49.0603 67.7061 48.6233 67.856C48.135 67.4676 47.8124 68.1444 47.3085 68.052C46.8948 67.9759 46.4176 68.2494 45.8965 68.3868C45.9165 70.3801 46.1472 72.3487 46.5081 74.3043C46.5356 74.4545 46.6999 74.5794 46.8007 74.7157C46.7207 75.3309 46.3362 75.6338 45.7482 75.7354L45.5075 75.4947C44.791 75.6743 44.1194 75.8429 43.3846 76.0269C42.9071 75.9892 42.6142 75.4725 42.1578 75.3026C41.6494 75.1136 41.4468 74.641 41.1297 74.445C40.5142 72.8279 40.1292 71.2574 40.1342 69.565L39.6189 69.0497C38.7866 69.1986 37.949 68.9706 37.1178 68.7569C36.8391 68.6852 36.5942 68.4726 36.3408 68.3141C35.8252 67.9912 35.2755 67.7297 34.843 67.2716C34.016 66.3951 33.8919 65.3038 34.3994 64.185C34.7195 63.4796 35.3144 63.0784 35.8116 62.4729C36.1292 63.3841 35.3658 64.0426 35.4651 64.9732C36.1503 64.2247 35.9118 63.1128 36.7716 62.5107C36.9154 62.7111 37.0595 62.9118 37.2111 63.1234C37.3924 63.0365 37.6589 62.9093 37.9154 62.7872L38.8768 63.7486C39.022 64.2835 39.1472 64.8368 39.3313 65.3702C39.3902 65.5417 39.6036 65.6603 39.8979 65.9545" fill="black"/>
<path fill-rule="evenodd" clip-rule="evenodd" d="M43.2677 43.7357C43.3396 44.3745 43.4056 44.958 43.4781 45.603L44.4495 46.5744C44.2902 46.9475 44.1355 47.3109 43.9603 47.7209C43.2785 47.7309 42.6927 47.4255 42.1608 47.1152C42.0678 47.3187 41.9853 47.4983 41.8629 47.7651C41.4906 47.6982 41.1108 47.6898 40.7796 47.5591C39.7877 47.1668 39.0725 46.4039 38.4099 45.6757C38.2491 45.2634 38.1053 44.8953 37.9257 44.4358C37.685 44.6138 37.5287 44.8284 37.374 44.8276C36.3904 44.8223 35.4046 44.802 34.4252 44.7193C33.8971 44.6743 33.3183 44.6052 32.873 44.3526C32.2217 43.9822 31.6698 43.437 31.0329 42.9328C30.9393 42.3784 30.7472 41.8115 30.7783 41.2574C30.8069 40.7479 31.0762 40.2521 31.2797 39.6261C31.481 39.6341 31.6764 39.6413 31.8746 39.6491C31.8724 39.7579 31.8452 41.2093 31.8452 41.2093C31.9521 41.2096 32.0593 41.2096 32.2167 41.2093C32.3083 40.6241 32.3225 39.9642 33.0856 39.6269C33.1362 39.9506 33.1753 40.2024 33.2442 40.6449C33.3982 40.2937 33.4846 40.098 33.604 39.8265C33.8349 39.8731 34.0828 39.9234 34.3838 39.9845C34.3841 40.4023 34.3841 40.7304 34.3843 41.1266C34.5381 41.025 34.6214 40.9706 34.7594 40.8798C34.8771 41.3406 35.3741 41.6438 35.0795 42.2338C36.0584 42.3348 36.8446 42.1438 37.6697 41.9772C37.9548 38.9242 38.2336 35.9376 38.5162 32.911L39.2466 32.1805C39.3751 32.565 39.4781 32.8713 39.5822 33.1814C39.969 33.1294 39.9545 32.768 40.0645 32.4892C41.1497 32.4518 41.9359 32.9737 42.55 33.8188C42.6161 34.3513 42.6838 34.8982 42.753 35.4565C42.7832 35.4551 42.8535 35.4526 43.0459 35.4451C42.9284 35.5969 42.8154 35.7432 42.7022 35.8898C42.8074 35.8934 42.9129 35.8973 43.0184 35.9012L42.7366 36.183C43.1941 37.6783 42.9814 39.2196 43.2288 40.7513C44.5991 40.3615 45.9487 39.7415 47.4348 39.3654C47.603 39.477 47.7937 39.6038 48.0189 39.754C48.0122 39.5186 48.0072 39.342 48.0025 39.1719C48.4278 38.8476 48.8509 39.2862 49.3231 39.1294C49.7368 38.9922 50.2646 39.1985 50.7482 39.2535L51.6471 40.1524C51.6471 40.2979 51.6471 40.4406 51.6471 40.6405C50.7843 41.3368 49.6954 41.5372 48.6263 41.8878C48.6249 41.9153 48.6199 42.0158 48.6177 42.0597C47.9983 42.4336 47.1691 42.1968 46.6758 42.8495C46.0653 42.7732 45.5994 43.1857 45.0544 43.3259C44.5039 43.4678 43.9467 43.5813 43.2677 43.7357" fill="black"/>
<path fill-rule="evenodd" clip-rule="evenodd" d="M77.4125 33.7833C77.6571 33.7153 77.8495 33.6617 78.1319 33.5831C78.3373 33.8707 78.5441 34.1608 78.7993 34.5176C79.1466 34.6111 79.5885 34.8405 80.1091 34.5909C80.0411 34.1781 79.8717 33.7972 80.0691 33.331C80.2073 33.0034 80.0125 32.5348 79.9642 32.1295C79.9108 31.6836 80.013 31.2405 79.8637 30.7819C79.7379 30.3963 79.8423 29.9421 79.7804 29.5276C79.716 29.0995 79.5746 28.6828 79.4672 28.2617L80.3206 27.4083C80.6049 27.6026 80.9153 27.7653 80.8806 28.2941C81.1349 28.0621 81.3317 27.8824 81.5116 27.7181C81.9416 27.9943 82.3309 28.2447 82.7118 28.489C82.6371 28.6598 82.5841 28.7805 82.5216 28.923C82.6018 28.9815 82.6726 29.0557 82.759 29.0926C83.4911 29.4027 83.6354 29.6159 83.6321 30.4238C83.6304 30.7608 83.8206 31.0926 84.0524 31.1867C84.4166 31.3344 83.993 31.5609 84.3828 31.6436C84.086 31.6722 83.9927 31.6811 83.8317 31.6967L84.2534 32.1184C84.1243 32.3091 84.0124 32.4737 83.8794 32.6695L84.2934 33.0834C84.3014 33.479 84.3075 33.7583 84.3125 33.9909C84.835 33.9854 85.3167 33.9801 85.7176 33.9762L86.2878 34.5465C86.6143 34.5465 86.9558 34.5465 87.3061 34.547C87.3483 34.698 87.3744 34.7935 87.4205 34.9612C87.6609 35.0428 87.9566 35.1436 88.338 35.2735C88.4968 35.7244 88.6723 36.2225 88.8389 36.6955L88.2078 37.3266C87.0521 37.6411 85.9311 37.9454 84.8134 38.2491C84.8819 38.5697 84.9366 38.8249 84.983 39.0411C84.7881 39.1083 84.6376 39.16 84.3792 39.2491L85.0838 39.9537C84.7676 40.0983 84.5466 40.1994 84.1329 40.3887C84.4272 40.4342 84.5077 40.4465 84.6626 40.4703C84.6543 40.7396 84.6454 41.0245 84.6312 41.475C84.3028 41.2399 84.0971 41.0925 83.8708 40.9301C83.9405 40.7871 83.9969 40.6713 84.0682 40.5239C84.0221 40.4562 83.9663 40.3743 83.898 40.2743C83.769 40.3368 83.651 40.3948 83.5321 40.4526C83.4308 40.2863 83.3289 40.1183 83.1562 39.8335C83.1446 40.1022 83.1401 40.206 83.1374 40.2677C82.7545 40.5295 82.3928 40.7774 82.0116 41.0386C81.8672 40.9931 81.6793 40.9334 81.4586 40.8643C81.2942 40.5856 81.1077 40.2691 80.9169 39.9467C81.0894 39.8232 81.3087 39.6666 81.5277 39.5098C81.5077 39.4742 81.4875 39.439 81.4675 39.4029C81.1726 39.5006 80.8781 39.5981 80.6182 39.6841C80.5102 39.3735 80.4025 39.0642 80.2904 38.7421C78.9464 38.3943 77.6052 38.1386 76.3795 37.5264C75.5625 37.0775 75.1549 36.2341 74.623 35.5201C74.2093 34.9648 74.2674 34.2216 74.4606 33.5381C74.4881 33.4407 74.507 33.3413 74.5447 33.1792L75.2976 32.4263C75.5353 32.4263 75.7493 32.4265 75.8998 32.4265C75.8998 32.723 75.8995 33.0243 75.8992 33.2028L76.3651 33.6686C76.4886 33.4585 76.6074 33.2569 76.7432 33.0262C76.9289 33.0198 77.0994 33.0143 77.3356 33.0062C77.364 33.2911 77.3873 33.5259 77.4125 33.7833" fill="black"/>
<path fill-rule="evenodd" clip-rule="evenodd" d="M39.6556 87.0929C39.8266 87.0929 39.9693 87.0929 40.1714 87.0929C40.1043 87.9535 40.0371 88.8091 39.9705 89.6648C40.0074 89.6812 40.0446 89.6973 40.0815 89.7131C40.1509 89.5865 40.2681 89.4643 40.2794 89.333C40.3011 89.0882 40.2614 88.8386 40.4083 88.6195C40.5493 88.1137 40.69 87.6076 40.8269 87.1154C41.323 87.0629 41.298 87.4383 41.4491 87.8253C41.5607 87.5776 41.6328 87.4172 41.7103 87.2442C41.8197 87.2442 41.9624 87.2442 42.1056 87.2442C42.4082 87.5463 42.7109 87.8489 43.0171 88.1551C43.0148 88.3294 43.0132 88.5077 43.0107 88.6956C43.0595 88.7167 43.1115 88.7614 43.1562 88.7545C43.4574 88.7114 43.76 88.6703 44.0565 88.6037C44.3749 88.5318 44.6836 88.2942 45.0068 88.6023C45.044 88.6379 45.1467 88.6173 45.2158 88.6054C45.4812 88.5593 45.7466 88.4599 46.0093 88.4688C46.2711 88.4774 46.5293 88.5918 46.876 88.6826C47.004 88.8105 47.2058 89.0124 47.4071 89.2142C47.4068 89.4643 47.4071 89.7139 47.4071 89.9227C46.1112 90.5362 44.8305 91.1428 43.5501 91.7492C43.4524 92.0706 43.3469 92.4166 43.2411 92.7628C43.2164 92.7569 43.1917 92.7511 43.167 92.7453C43.1667 93.1375 43.1667 93.5301 43.1667 94.0315C43.2228 94.0948 43.3327 94.2192 43.4729 94.3777C43.4577 95.1575 43.4421 95.9743 43.4296 96.6331C43.7839 97.3244 44.4063 97.7758 43.8199 98.5825C43.4454 98.4962 42.891 98.9768 42.4718 98.3216C42.2872 98.4235 42.0598 98.5481 41.8125 98.6844C41.7983 98.7569 41.7725 98.8871 41.7522 98.9884C41.3513 98.9773 41.0007 98.967 40.4915 98.9526C39.9641 98.5356 39.2889 98.002 38.5785 97.4404C38.5274 96.1317 38.4771 94.8421 38.4235 93.4737C38.0054 93.5698 37.6057 93.7003 37.1967 93.7455C36.7736 93.7922 36.3414 93.7558 35.9011 93.7558C35.7656 93.4987 35.6273 93.2367 35.4777 92.9538C35.3122 93.0348 35.194 93.0926 35.0468 93.1642L34.5355 92.6528C34.5352 92.5681 34.5355 92.4613 34.5352 92.3372C34.7087 92.0776 34.8908 91.805 35.1157 91.4679C36.2834 91.1398 37.5601 90.7808 38.8019 90.4313C39.2964 89.33 39.1137 88.1129 39.6556 87.0929" fill="black"/>
</g>
</svg>
