<svg width="17" height="21" viewBox="0 0 17 21" fill="none" xmlns="http://www.w3.org/2000/svg">
<g clip-path="url(#clip0_30_336)">
<path d="M14.1273 11.0999C14.1273 9.3693 15.0591 7.85963 16.4415 7.06007C15.7196 6.16096 14.6338 5.35519 13.4369 5.11874C11.8047 4.79596 10.8736 5.33341 10.2714 5.54885C9.66905 5.7643 8.86905 5.95796 8.86905 5.95796C8.86905 5.95796 8.06982 5.7643 7.46675 5.54885C6.86522 5.33341 5.93419 4.79519 4.302 5.11796C2.66982 5.44074 1.24453 6.82285 0.66522 8.05485C-0.452021 10.4325 0.00774913 13.4239 0.797021 15.5752C1.58553 17.7273 3.67058 20.7342 5.28744 20.9761C6.43763 21.148 7.14951 20.3414 8.86905 20.1369C10.5886 20.3414 11.3005 21.148 12.4507 20.9761C14.0675 20.7342 16.1526 17.7273 16.9411 15.5752C16.9602 15.5223 16.9802 15.4679 16.9993 15.4134C15.3158 14.7274 14.1273 13.0544 14.1273 11.0999ZM8.46062 4.72519C8.46062 4.72519 10.0599 4.94063 11.512 3.26685C12.9641 1.59307 12.551 0.00951852 12.551 0.00951852C12.551 0.00951852 10.9518 -0.205926 9.4997 1.46785C8.0476 3.14163 8.46062 4.72519 8.46062 4.72519Z" fill="white"/>
</g>
<defs>
<clipPath id="clip0_30_336">
<rect width="17" height="21" fill="white"/>
</clipPath>
</defs>
</svg>
