<svg width="46" height="42" viewBox="0 0 46 42" fill="none" xmlns="http://www.w3.org/2000/svg">
<path d="M33.9927 16.6245C33.9927 15.5745 33.3377 14.6115 32.3069 14.262C32.9619 13.4745 33.0567 12.3376 32.4948 11.3745C31.9328 10.4115 30.809 9.97508 29.7782 10.062C29.8712 9.09896 29.4041 8.04896 28.3733 7.52396C27.3425 6.99896 26.2186 7.0859 25.2826 7.69951C24.9086 6.73809 23.8778 6.12451 22.7539 6.12451C21.63 6.12451 20.5992 6.73645 20.2252 7.69951C19.2892 7.08757 18.1654 7.00059 17.1345 7.52561C16.1037 8.05062 15.6366 9.10061 15.7297 10.0637C14.6989 9.97671 13.575 10.4131 13.0131 11.3762C12.4511 12.3392 12.5442 13.3892 13.201 14.2637C12.265 14.7017 11.5151 15.5762 11.5151 16.6262C11.5151 17.6762 12.1701 18.6392 13.201 18.9887C12.546 19.7762 12.4511 20.9131 13.0131 21.8762C13.575 22.8392 14.6989 23.2756 15.7297 23.1887C15.6366 24.1517 16.1037 25.2017 17.1345 25.7267C17.1345 25.7267 17.2276 25.7267 17.2276 25.8137L14.4179 34.2137L17.9775 32.4631L19.8512 35.7887L22.7539 27.1262H22.847H22.9401L25.8428 35.8756L27.7166 32.5501L31.2761 34.3006L28.3734 25.8137C28.3734 25.8137 28.4664 25.8137 28.4664 25.7267C29.4972 25.2017 29.9643 24.1517 29.8713 23.1887C30.9021 23.2756 32.026 22.8392 32.5879 21.8762C33.1498 20.9131 33.0568 19.8631 32.4 18.9887C33.3377 18.6376 33.9928 17.6745 33.9928 16.6245L33.9927 16.6245ZM22.7539 22.7506C19.1013 22.7506 16.1986 20.0387 16.1986 16.6262C16.1986 13.2137 19.1013 10.5018 22.7539 10.5018C26.4065 10.5018 29.3093 13.2137 29.3093 16.6262C29.3093 20.0371 26.4065 22.7506 22.7539 22.7506V22.7506Z" fill="black"/>
</svg>
