<svg width="30" height="30" viewBox="0 0 30 30" fill="none" xmlns="http://www.w3.org/2000/svg">
<path d="M7.56765 5.99991C7.90232 5.95645 8.24169 6.03069 8.52765 6.20991L18.2777 11.7524L15.8102 14.2499L7.56765 5.99991ZM6.81765 6.74991C6.77063 6.91319 6.74789 7.0825 6.75015 7.25241V22.7474C6.74789 22.9173 6.77063 23.0866 6.81765 23.2499L15.0677 14.9999L6.81765 6.74991ZM15.8177 15.7499L7.56765 23.9999C7.90248 24.0473 8.24319 23.9728 8.52765 23.7899L18.2777 18.2474L15.8177 15.7499ZM22.2077 13.9949L19.2527 12.3149L16.5527 14.9999L19.2452 17.6924L22.2002 16.0124C23.1752 15.4574 23.1752 14.5424 22.2002 13.9874L22.2077 13.9949Z" fill="white"/>
</svg>
