<svg width="143" height="20" viewBox="0 0 143 20" fill="none" xmlns="http://www.w3.org/2000/svg">
<g clip-path="url(#clip0_30_276)">
<path d="M40.1221 9.25917C40.1221 12.1725 41.7424 14.7717 44.276 16.4692V20L48.0723 18.1317C49.085 18.3825 50.1581 18.5192 51.2703 18.5192C57.4274 18.5192 62.4194 14.3742 62.4194 9.26C62.4203 4.14583 57.4283 0 51.2712 0C45.1141 0 40.1221 4.145 40.1221 9.25917V9.25917ZM50.095 6.66583L53.003 9.38167L58.4726 6.66583L52.3777 12.4675L49.5394 9.7525L43.9992 12.4683L50.095 6.66583Z" fill="#3734A9"/>
</g>
<g clip-path="url(#clip1_30_276)">
<path d="M22.2928 19.9999V19.999H22.2984V12.664C22.2984 9.07569 21.4371 6.31152 16.7601 6.31152C14.5116 6.31152 13.0028 7.41819 12.3868 8.46736H12.3218V6.64652H7.88721V19.999H12.5048V13.3874C12.5048 11.6465 12.8727 9.96319 15.2763 9.96319C17.6445 9.96319 17.6799 11.9499 17.6799 13.499V19.9999H22.2928Z" fill="#3734A9"/>
<path d="M0.368164 6.64795H4.99133V20.0004H0.368164V6.64795Z" fill="#3734A9"/>
<path d="M2.67765 0C1.19946 0 0 1.07583 0 2.40167C0 3.7275 1.19946 4.82583 2.67765 4.82583C4.15584 4.82583 5.3553 3.7275 5.3553 2.40167C5.35437 1.07583 4.15491 0 2.67765 0V0Z" fill="#3734A9"/>
</g>
<g clip-path="url(#clip2_30_276)">
<path d="M100.252 5.9275C101.159 5.35 101.922 4.62917 102.543 3.79917V3.79833C101.714 4.12417 100.831 4.34083 99.9094 4.44583C100.857 3.93833 101.581 3.14083 101.921 2.18C101.037 2.6525 100.062 2.98583 99.0221 3.1725C98.1831 2.37083 96.9874 1.875 95.6829 1.875C93.1521 1.875 91.1146 3.7175 91.1146 5.97583C91.1146 6.30083 91.1452 6.61333 91.2205 6.91083C87.4205 6.74417 84.0572 5.11083 81.7976 2.62167C81.4037 3.23583 81.1714 3.93833 81.1714 4.69417C81.1714 6.11417 81.9862 7.3725 83.2024 8.10167C82.4675 8.08917 81.7475 7.8975 81.137 7.59667V7.64167C81.137 9.63417 82.7212 11.2892 84.7995 11.6708C84.427 11.7625 84.0219 11.8058 83.601 11.8058C83.3083 11.8058 83.0129 11.7908 82.736 11.7358C83.3278 13.3592 85.0095 14.5533 87.0071 14.5925C85.4518 15.6833 83.4765 16.3408 81.3387 16.3408C80.9642 16.3408 80.6047 16.3258 80.2451 16.285C82.2705 17.4558 84.6695 18.125 87.2579 18.125C95.3252 18.125 100.583 12.0883 100.252 5.9275V5.9275Z" fill="#3734A9"/>
</g>
<g clip-path="url(#clip3_30_276)">
<path d="M129.766 14.0989C129.826 14.0539 129.886 14.0072 129.942 13.958C126.838 16.6897 121.776 15.4147 120.589 11.5622V11.5564C118.998 6.31471 125.709 2.33304 129.94 5.99971C130.028 6.08388 135.873 11.6747 135.501 11.3189H135.518C136.391 12.1255 137.652 12.0372 138.403 11.3322C139.21 10.5755 139.239 9.34055 138.447 8.57138C137.195 7.27888 134.738 8.24471 134.973 10.1605L133.566 8.87555L131.935 7.47638C132.271 6.87721 132.712 6.35305 133.265 5.89971C133.206 5.94555 133.145 5.99305 133.089 6.04055C136.206 3.29888 141.264 4.60388 142.442 8.43971V8.44471C144.037 13.6855 137.319 17.6672 133.091 14.0005C133.005 13.9172 127.164 8.29138 127.533 8.64805L127.53 8.63555C127.515 8.63555 127.515 8.62305 127.515 8.62305C126.599 7.77555 125.357 7.90305 124.63 8.59721C123.822 9.35388 123.794 10.5889 124.588 11.3464C125.785 12.6089 128.295 11.673 128.059 9.71888C128.15 9.80305 131.301 12.7039 131.1 12.5197C130.59 13.4322 130.02 13.8514 129.766 14.0989V14.0989Z" fill="#3734A9"/>
</g>
<defs>
<clipPath id="clip0_30_276">
<rect width="22.2982" height="20" fill="white" transform="translate(40.1221)"/>
</clipPath>
<clipPath id="clip1_30_276">
<rect width="22.2982" height="20" fill="white"/>
</clipPath>
<clipPath id="clip2_30_276">
<rect width="22.2982" height="20" fill="white" transform="translate(80.2451)"/>
</clipPath>
<clipPath id="clip3_30_276">
<rect width="22.2982" height="20" fill="white" transform="translate(120.367)"/>
</clipPath>
</defs>
</svg>
