<svg width="65" height="60" viewBox="0 0 65 60" fill="none" xmlns="http://www.w3.org/2000/svg">
<rect x="0.289062" width="64.2215" height="60" rx="5" fill="#E9ECF2"/>
<path d="M32.3999 22.125C28.2784 22.125 24.9067 25.275 24.9067 29.1256C24.9067 30.7006 25.4687 32.1 26.4046 33.2386C26.4046 33.2386 26.6856 33.5881 26.7787 33.6767C27.6216 34.6397 29.6814 37.3517 29.6814 39.6272H35.3008C35.3008 37.3517 37.3607 34.6397 38.2036 33.6767C38.2966 33.5897 38.5776 33.2386 38.5776 33.2386C39.5136 32.1017 40.0755 30.6136 40.0755 29.1256C39.8929 25.275 36.5213 22.125 32.3999 22.125H32.3999Z" fill="black"/>
<path d="M29.5903 41.3745H35.2097V44.874H29.5903V41.3745Z" fill="black"/>
<path d="M17.4155 28.2495H23.0349V30.0001H17.4155V28.2495Z" fill="black"/>
<path d="M41.7651 28.2495H47.3845V30.0001H41.7651V28.2495Z" fill="black"/>
<path d="M42.3445 18.606L43.6686 19.843L39.6947 23.5557L38.3706 22.3187L42.3445 18.606Z" fill="black"/>
<path d="M31.4639 15.1245H33.3376V20.3745H31.4639V15.1245Z" fill="black"/>
<path d="M22.4657 18.5981L26.4396 22.3109L25.1155 23.5479L21.1416 19.8352L22.4657 18.5981Z" fill="black"/>
</svg>
