<svg width="331" height="374" viewBox="0 0 331 374" fill="none" xmlns="http://www.w3.org/2000/svg">
<path d="M142.345 319.981L127.25 335.076C124.659 337.667 124.659 341.868 127.25 344.459L151.585 368.794C154.176 371.385 158.377 371.385 160.969 368.794L368.078 161.685C370.669 159.094 370.669 154.892 368.078 152.301L291.275 75.4981C290.599 74.8216 289.784 74.2994 288.887 73.9673L196.731 39.855C191.342 37.86 186.137 43.1938 188.264 48.5329L227.13 146.112C228.111 148.575 227.532 151.385 225.657 153.26L210.034 168.883C208.888 170.029 207.362 170.716 205.745 170.815L202.057 171.039C197.616 171.309 194.694 175.789 196.237 179.963L203.584 199.837C204.224 201.568 203.798 203.514 202.493 204.819C201.101 206.211 198.992 206.594 197.2 205.782L135.962 178.045C133.446 176.906 130.486 177.444 128.533 179.398L125.959 181.971C124.085 183.846 121.275 184.425 118.812 183.444L117.458 182.904C115.351 182.065 112.948 182.56 111.344 184.164C109.71 185.798 109.23 188.26 110.13 190.388L134.332 247.601C135.384 250.089 134.823 252.967 132.912 254.878L124.305 263.486C122.287 265.503 121.785 268.584 123.058 271.138L143.591 312.329C144.864 314.882 144.362 317.964 142.345 319.981Z" fill="url(#paint0_linear_30_96)"/>
<path d="M124.104 338.633L143.589 319.148C145.614 317.123 146.111 314.028 144.823 311.471L124.128 270.392C122.84 267.834 123.337 264.739 125.362 262.715L133.75 254.326C135.669 252.407 136.226 249.513 135.157 247.019L110.674 189.922C109.776 187.827 110.244 185.395 111.856 183.783V183.783C113.438 182.201 115.813 181.718 117.887 182.557L119.255 183.109C121.724 184.107 124.55 183.533 126.433 181.649L128.863 179.22C130.824 177.258 133.799 176.724 136.32 177.88L197.442 205.907C199.206 206.716 201.288 206.342 202.661 204.969V204.969C203.949 203.681 204.365 201.758 203.724 200.052L196.308 180.317C194.731 176.119 197.685 171.598 202.163 171.357L205.615 171.171C207.249 171.083 208.793 170.395 209.951 169.237L225.285 153.903C227.168 152.02 227.743 149.194 226.745 146.725L187.492 49.6226C185.326 44.264 190.571 38.8904 195.981 40.9257L289.031 75.9356" stroke="#4F46BA" stroke-width="2.84366" stroke-linecap="round" stroke-linejoin="round"/>
<defs>
<linearGradient id="paint0_linear_30_96" x1="108.353" y1="109.07" x2="264.523" y2="265.24" gradientUnits="userSpaceOnUse">
<stop stop-color="#4F46BA" stop-opacity="0.21"/>
<stop offset="1" stop-color="white" stop-opacity="0"/>
</linearGradient>
</defs>
</svg>
