<svg width="886" height="91" viewBox="0 0 886 91" fill="none" xmlns="http://www.w3.org/2000/svg">
<g filter="url(#filter0_d_67_10)">
<rect x="104.219" y="9" width="777.781" height="66" rx="33" fill="#403355" fill-opacity="0.6" shape-rendering="crispEdges"/>
</g>
<ellipse cx="43.907" cy="45.5" rx="43.907" ry="45.5" fill="#FCFCFF"/>
<path d="M49.1171 80.3724C46.1688 79.5753 43.9719 78.1261 42.5358 76.0311C41.665 74.7607 39.7967 70.7895 39.783 70.1796C39.7765 69.9039 39.5536 69.2063 39.287 68.6293C38.877 67.7417 38.509 67.473 36.8948 66.8827C34.1746 65.8879 31.6765 64.1766 29.5211 61.8313C27.038 59.1293 25.4423 56.2882 24.4079 52.7271C20.7984 40.3001 27.2743 27.0275 38.5579 23.726C41.6799 22.8126 46.6129 23.0364 49.6382 24.2288C55.8842 26.6907 60.6593 32.6049 62.3009 39.9122C62.9893 42.9763 62.8644 48.3412 62.0271 51.674C61.6468 53.1877 61.0885 54.8873 60.7865 55.451L60.2374 56.4758L61.6802 60.2774L63.123 64.0789L63.1214 67.3452C63.1197 70.404 63.0618 70.7545 62.2074 72.8608C61.1888 75.3719 59.0565 77.9885 57.0816 79.1505C54.8467 80.4657 51.4112 80.9928 49.117 80.3724H49.1171ZM53.603 78.5058C55.5929 78.0193 56.9732 77.1647 58.4919 75.4789C59.7538 74.0783 60.7919 72.327 60.3656 72.3181C59.9733 72.3099 48.7115 78.0767 48.7029 78.2902C48.6812 78.8247 51.7466 78.9596 53.603 78.5058V78.5058ZM53.8747 73.6807C57.7746 71.6902 61.1172 69.9233 61.3026 69.7541C61.6749 69.4145 61.7753 66.412 61.4143 66.412C61.1987 66.412 44.7855 74.677 44.2668 75.0468C43.9794 75.2516 45.9643 77.2882 46.4581 77.2952C46.6373 77.2976 49.9748 75.6712 53.8747 73.6807V73.6807ZM50.643 69.8118C54.6887 67.7465 58.7609 65.6521 59.6924 65.1576L61.386 64.2585L60.9594 63.0799C60.7248 62.4317 60.438 61.7917 60.3222 61.6578C60.1241 61.4286 42.6396 70.1864 42.1091 70.7806C41.8383 71.0839 42.6902 73.5668 43.0651 73.5668C43.1873 73.5668 46.5974 71.8771 50.643 69.8118V69.8118ZM47.4132 65.9995C48.5628 65.3903 49.5047 64.779 49.5063 64.641C49.508 64.5029 48.4571 61.6252 47.1711 58.2461L44.8329 52.1023H43.4775C41.677 52.1023 39.9493 51.1148 39.0708 49.5836C38.6925 48.9242 38.454 48.1713 38.5408 47.9104C38.803 47.1222 39.6472 47.376 40.172 48.4007C40.6729 49.3787 42.4436 50.5348 43.4352 50.5313C44.4433 50.528 46.3305 49.1618 46.8636 48.05C47.2832 47.1749 47.3513 46.5997 47.2214 45.0252C47.0733 43.2288 47.1019 43.0809 47.5985 43.0809C48.3501 43.0809 48.7665 44.1554 48.7517 46.0567C48.7373 47.9124 48.1898 49.3278 47.0028 50.5783L46.1764 51.4489L48.5816 57.6841C49.9044 61.1135 51.1227 63.9202 51.289 63.9213C51.5551 63.9231 59.4819 59.9688 59.7032 59.7239C59.7506 59.6714 59.5383 59.0606 59.2313 58.3664C58.5203 56.7589 58.5301 56.3863 59.3255 54.8018C61.3571 50.7547 61.858 43.999 60.4829 39.1924C58.8326 33.4237 55.5921 29.1739 50.9627 26.7068C45.4711 23.7801 38.8702 24.1725 33.7972 27.7271C27.2618 32.3063 23.7757 41.4306 25.3321 49.8829C26.4348 55.8713 30.1248 61.3862 34.7368 63.9388C36.0073 64.6419 37.6346 65.3883 38.3531 65.5973C39.5285 65.9392 39.7347 66.1377 40.4106 67.578L41.1617 69.1788L43.2424 68.1429C44.3868 67.5731 46.2636 66.6086 47.4132 65.9995V65.9995ZM20.2413 27.1814C17.5719 24.6979 16.9675 23.745 17.8216 23.3669C18.3205 23.1461 18.3416 23.1617 21.5527 26.1103C23.3149 27.7285 23.8859 28.4307 23.8266 28.9068C23.6826 30.0621 22.9678 29.7181 20.2413 27.1814V27.1814ZM32.0535 20.9164C31.4473 19.9934 29.2441 13.7622 29.3797 13.3545C29.4617 13.1079 29.7516 12.9061 30.0238 12.9061C30.3969 12.9061 30.8712 13.8248 31.9499 16.6365C32.737 18.6882 33.3107 20.5781 33.2249 20.8361C33.0354 21.4055 32.4031 21.4488 32.0535 20.9164V20.9164ZM43.9119 14.2961C44.0676 10.0145 44.2519 9.24196 45.0352 9.58866C45.3726 9.73799 45.452 10.2642 45.4286 12.1964C45.4126 13.5277 45.3215 15.4569 45.2264 16.4835C45.0719 18.15 44.9839 18.3613 44.4051 18.4557L43.7569 18.5613L43.9119 14.2961Z" fill="url(#paint0_linear_67_10)"/>
<defs>
<filter id="filter0_d_67_10" x="100.219" y="9" width="785.781" height="74" filterUnits="userSpaceOnUse" color-interpolation-filters="sRGB">
<feFlood flood-opacity="0" result="BackgroundImageFix"/>
<feColorMatrix in="SourceAlpha" type="matrix" values="0 0 0 0 0 0 0 0 0 0 0 0 0 0 0 0 0 0 127 0" result="hardAlpha"/>
<feOffset dy="4"/>
<feGaussianBlur stdDeviation="2"/>
<feComposite in2="hardAlpha" operator="out"/>
<feColorMatrix type="matrix" values="0 0 0 0 0 0 0 0 0 0 0 0 0 0 0 0 0 0 0.5 0"/>
<feBlend mode="normal" in2="BackgroundImageFix" result="effect1_dropShadow_67_10"/>
<feBlend mode="normal" in="SourceGraphic" in2="effect1_dropShadow_67_10" result="shape"/>
</filter>
<linearGradient id="paint0_linear_67_10" x1="17.9984" y1="9.76671" x2="64.5133" y2="79.463" gradientUnits="userSpaceOnUse">
<stop stop-color="#3C096C"/>
<stop offset="1" stop-color="#9D4EDD" stop-opacity="0.540984"/>
</linearGradient>
</defs>
</svg>
