<svg width="69" height="69" viewBox="0 0 69 69" fill="none" xmlns="http://www.w3.org/2000/svg">
<circle cx="34.5" cy="34.5" r="34.5" fill="#FCFCFF"/>
<g clip-path="url(#clip0_30_385)">
<path d="M38.593 60.9417C36.2764 60.3372 34.5502 59.2384 33.4218 57.6499C32.7375 56.6866 31.2695 53.6755 31.2587 53.2131C31.2536 53.004 31.0785 52.475 30.869 52.0375C30.5468 51.3645 30.2577 51.1608 28.9893 50.7132C26.8519 49.9589 24.889 48.6613 23.1955 46.883C21.2443 44.8343 19.9905 42.68 19.1778 39.9798C16.3415 30.5572 21.43 20.4933 30.2961 17.99C32.7492 17.2974 36.6253 17.4671 39.0025 18.3713C43.9102 20.2379 47.6623 24.7224 48.9522 30.263C49.4931 32.5863 49.3949 36.6543 48.737 39.1813C48.4382 40.329 47.9996 41.6178 47.7622 42.0452L47.3308 42.8223L48.4645 45.7047L49.5982 48.5872L49.5969 51.0639C49.5956 53.3832 49.5501 53.6489 48.8787 55.246C48.0784 57.15 46.4029 59.134 44.8512 60.0152C43.095 61.0124 40.3956 61.412 38.593 60.9417H38.593ZM42.1178 59.5263C43.6814 59.1574 44.7659 58.5095 45.9593 57.2312C46.9508 56.1692 47.7665 54.8413 47.4315 54.8346C47.1233 54.8283 38.2743 59.2009 38.2675 59.3628C38.2505 59.7681 40.6592 59.8704 42.1178 59.5263V59.5263ZM42.3313 55.8677C45.3957 54.3585 48.0221 53.0187 48.1678 52.8904C48.4603 52.6329 48.5392 50.3563 48.2556 50.3563C48.0861 50.3563 35.1894 56.6232 34.7818 56.9036C34.5561 57.0589 36.1157 58.603 36.5037 58.6084C36.6445 58.6102 39.267 57.377 42.3313 55.8677V55.8677ZM39.792 52.9341C42.9709 51.3681 46.1707 49.7801 46.9026 49.4051L48.2333 48.7234L47.8981 47.8297C47.7137 47.3382 47.4885 46.853 47.3975 46.7514C47.2418 46.5776 33.5033 53.2182 33.0865 53.6687C32.8737 53.8987 33.5431 55.7814 33.8376 55.7814C33.9336 55.7814 36.6131 54.5001 39.792 52.9341V52.9341ZM37.2542 50.0435C38.1575 49.5816 38.8976 49.1181 38.8988 49.0134C38.9001 48.9087 38.0744 46.7267 37.0639 44.1646L35.2267 39.506H34.1617C32.7469 39.506 31.3894 38.7573 30.6991 37.5963C30.4019 37.0963 30.2144 36.5254 30.2826 36.3276C30.4887 35.73 31.152 35.9224 31.5644 36.6993C31.9579 37.4409 33.3493 38.3175 34.1284 38.3148C34.9205 38.3124 36.4034 37.2765 36.8223 36.4334C37.1521 35.7699 37.2055 35.3338 37.1035 34.1399C36.9871 32.7778 37.0096 32.6657 37.3998 32.6657C37.9904 32.6657 38.3176 33.4804 38.3059 34.9221C38.2946 36.3291 37.8644 37.4023 36.9317 38.3505L36.2824 39.0106L38.1722 43.7384C39.2116 46.3387 40.1689 48.4669 40.2996 48.4678C40.5087 48.4691 46.7372 45.4708 46.9111 45.2851C46.9483 45.2453 46.7815 44.7821 46.5402 44.2558C45.9816 43.0369 45.9893 42.7544 46.6143 41.553C48.2106 38.4843 48.6042 33.3618 47.5237 29.7173C46.227 25.3432 43.6808 22.1208 40.0432 20.2501C35.7282 18.031 30.5415 18.3285 26.5554 21.0238C21.4202 24.4959 18.681 31.4143 19.9039 37.8232C20.7704 42.3639 23.6698 46.5455 27.2937 48.481C28.292 49.0142 29.5706 49.58 30.1352 49.7385C31.0588 49.9978 31.2208 50.1483 31.7518 51.2404L32.342 52.4542L33.9769 51.6687C34.8761 51.2367 36.3509 50.5054 37.2542 50.0435V50.0435ZM15.9038 20.61C13.8063 18.7269 13.3314 18.0044 14.0026 17.7177C14.3946 17.5503 14.4111 17.5621 16.9342 19.7978C18.3189 21.0248 18.7676 21.5573 18.7209 21.9183C18.6078 22.7943 18.0461 22.5334 15.9038 20.61V20.61ZM25.1852 15.8596C24.709 15.1598 22.9777 10.435 23.0843 10.1259C23.1488 9.93886 23.3765 9.78586 23.5904 9.78586C23.8836 9.78586 24.2563 10.4824 25.1038 12.6144C25.7223 14.1701 26.1731 15.6031 26.1057 15.7987C25.9568 16.2304 25.4599 16.2633 25.1852 15.8596V15.8596ZM34.5031 10.8398C34.6253 7.59334 34.7702 7.00757 35.3857 7.27045C35.6508 7.38368 35.7131 7.7827 35.6948 9.24774C35.6822 10.2572 35.6106 11.72 35.5359 12.4984C35.4145 13.762 35.3453 13.9222 34.8906 13.9938L34.3812 14.0739L34.5031 10.8398Z" fill="url(#paint0_linear_30_385)"/>
</g>
<defs>
<linearGradient id="paint0_linear_30_385" x1="14.1415" y1="7.40545" x2="48.9133" y2="61.3967" gradientUnits="userSpaceOnUse">
<stop stop-color="#3C096C"/>
<stop offset="1" stop-color="#9D4EDD" stop-opacity="0.540984"/>
</linearGradient>
<clipPath id="clip0_30_385">
<rect width="39.1442" height="55.0673" fill="white" transform="translate(11.9424 6.63477)"/>
</clipPath>
</defs>
</svg>
